<svg width="2480" height="1750" viewBox="0 0 2480 1750" fill="none" xmlns="http://www.w3.org/2000/svg">
<mask id="mask0_188_66" style="mask-type:alpha" maskUnits="userSpaceOnUse" x="0" y="0" width="2480" height="1750">
<rect width="2480" height="1750" fill="#D9D9D9"/>
</mask>
<g mask="url(#mask0_188_66)">
<rect width="2480" height="1750" fill="#D9D9D9"/>
<rect x="405" y="294" width="1545" height="711" fill="white" stroke="black" stroke-width="4"/>
<g filter="url(#filter0_d_188_66)">
<path d="M489.5 477L405 292H1950.5L1870 477H489.5Z" fill="white"/>
<path d="M489.5 477L405 292H1950.5L1870 477H489.5Z" stroke="black" stroke-width="4"/>
</g>
<path d="M1092.18 383.2C1102.98 389.35 1105.23 397.9 1105.23 406.15C1105.23 421 1095.18 433 1073.43 433H1027.98V333.4H1073.43C1095.18 333.4 1105.23 345.4 1105.23 360.25C1105.23 368.5 1102.98 377.05 1092.18 383.2ZM1041.48 420.4H1073.28C1084.68 420.4 1091.73 415.15 1091.73 404.95C1091.73 394.75 1084.68 389.5 1073.28 389.5H1041.48V420.4ZM1041.48 376.9H1073.28C1084.68 376.9 1091.73 371.65 1091.73 361.45C1091.73 351.25 1084.68 346 1073.28 346H1041.48V376.9ZM1139.62 362.05C1159.12 362.05 1172.62 371.8 1172.62 389.05V433H1159.72V425.5C1154.32 431.35 1146.37 434.95 1135.72 434.95C1119.52 434.95 1107.67 427.45 1107.67 412C1107.67 395.35 1122.07 389.65 1137.97 389.65H1159.72C1159.72 378.25 1151.02 374.05 1139.62 374.05C1131.37 374.05 1123.12 377.5 1120.42 384.1H1106.02C1110.07 369.85 1123.72 362.05 1139.62 362.05ZM1159.72 405.4V400.9H1137.82C1127.17 400.9 1120.57 404.5 1120.57 412C1120.57 419.5 1127.17 422.95 1137.07 422.95C1151.02 422.95 1159.72 415.75 1159.72 405.4ZM1242.33 383.5H1228.08C1224.93 376.9 1217.73 374.05 1207.38 374.05C1197.48 374.05 1190.73 377.65 1190.73 383.5C1190.73 389.35 1195.83 391.45 1204.98 392.2L1218.93 393.25C1233.33 394.45 1241.58 400.9 1241.58 413.35C1241.58 425.2 1230.18 434.95 1210.98 434.95C1190.73 434.95 1178.58 424.9 1175.58 412.9H1189.83C1192.53 419.5 1200.48 422.95 1212.63 422.95C1221.63 422.95 1228.68 419.35 1228.68 413.65C1228.68 407.95 1223.58 405.55 1214.28 404.8L1199.88 403.6C1185.18 402.25 1177.83 395.8 1177.83 383.95C1177.83 371.8 1189.23 362.2 1207.53 362.2C1228.08 362.2 1239.18 372.25 1242.33 383.5ZM1246.31 364H1259.21V433H1246.31V364ZM1245.26 348.25V332.65H1260.26V348.25H1245.26ZM1334.06 384.1H1319.81C1316.21 377.95 1309.61 374.05 1301.51 374.05C1288.01 374.05 1278.41 384.85 1278.41 398.5C1278.41 412.15 1288.01 422.95 1301.51 422.95C1309.61 422.95 1316.21 419.05 1319.81 412.9H1334.06C1329.11 426.25 1316.81 434.95 1301.51 434.95C1281.11 434.95 1265.51 419.35 1265.51 398.5C1265.51 377.65 1281.11 362.05 1301.51 362.05C1316.81 362.05 1329.11 370.75 1334.06 384.1Z" fill="black"/>
<path d="M610.629 760.192L593.745 799H570.309L643.893 631.672H668.589L741.921 799H717.729L700.845 760.192H610.629ZM691.773 739.276L655.737 656.368L619.701 739.276H691.773ZM785.684 679.804C818.444 679.804 841.124 696.184 841.124 725.164V799H819.452V786.4C810.38 796.228 797.024 802.276 779.132 802.276C751.916 802.276 732.008 789.676 732.008 763.72C732.008 735.748 756.2 726.172 782.912 726.172H819.452C819.452 707.02 804.836 699.964 785.684 699.964C771.824 699.964 757.964 705.76 753.428 716.848H729.236C736.04 692.908 758.972 679.804 785.684 679.804ZM819.452 752.632V745.072H782.66C764.768 745.072 753.68 751.12 753.68 763.72C753.68 776.32 764.768 782.116 781.4 782.116C804.836 782.116 819.452 770.02 819.452 752.632Z" fill="black"/>
<path d="M1155.51 715.336C1173.65 725.668 1177.43 740.032 1177.43 753.892C1177.43 778.84 1160.55 799 1124.01 799H1047.65V631.672H1124.01C1160.55 631.672 1177.43 651.832 1177.43 676.78C1177.43 690.64 1173.65 705.004 1155.51 715.336ZM1070.33 777.832H1123.76C1142.91 777.832 1154.75 769.012 1154.75 751.876C1154.75 734.74 1142.91 725.92 1123.76 725.92H1070.33V777.832ZM1070.33 704.752H1123.76C1142.91 704.752 1154.75 695.932 1154.75 678.796C1154.75 661.66 1142.91 652.84 1123.76 652.84H1070.33V704.752ZM1188.84 630.412H1210.51V695.68C1219.08 686.104 1233.19 679.804 1249.57 679.804C1287.63 679.804 1308.29 709.036 1308.29 741.04C1308.29 773.044 1287.63 802.276 1249.57 802.276C1233.19 802.276 1219.08 795.976 1210.51 786.4V799H1188.84V630.412ZM1209.76 741.04C1209.76 768.508 1228.66 782.116 1248.82 782.116C1271.25 782.116 1286.62 763.216 1286.62 741.04C1286.62 718.864 1271.25 699.964 1248.82 699.964C1228.66 699.964 1209.76 713.572 1209.76 741.04Z" fill="black"/>
<path d="M1585.52 649.564C1549.48 649.564 1522.27 677.536 1522.27 715.336C1522.27 753.136 1549.48 781.108 1585.52 781.108C1606.69 781.108 1622.31 771.784 1632.64 757.42H1658.35C1644.99 784.132 1619.54 802.276 1585.52 802.276C1536.88 802.276 1499.59 764.728 1499.59 715.336C1499.59 665.944 1536.88 628.396 1585.52 628.396C1619.54 628.396 1644.99 646.54 1658.35 673.252H1632.64C1622.31 658.888 1606.69 649.564 1585.52 649.564ZM1773.47 716.848H1749.53C1743.48 706.516 1732.4 699.964 1718.79 699.964C1696.11 699.964 1679.98 718.108 1679.98 741.04C1679.98 763.972 1696.11 782.116 1718.79 782.116C1732.4 782.116 1743.48 775.564 1749.53 765.232H1773.47C1765.16 787.66 1744.49 802.276 1718.79 802.276C1684.52 802.276 1658.31 776.068 1658.31 741.04C1658.31 706.012 1684.52 679.804 1718.79 679.804C1744.49 679.804 1765.16 694.42 1773.47 716.848Z" fill="black"/>
<rect x="529" y="886" width="1545" height="711" fill="white" stroke="black" stroke-width="4"/>
<g filter="url(#filter1_d_188_66)">
<path d="M613.5 1069L529 884H2074.5L1994 1069H613.5Z" fill="white"/>
<path d="M613.5 1069L529 884H2074.5L1994 1069H613.5Z" stroke="black" stroke-width="4"/>
</g>
<path d="M1166.46 925.4L1186.71 1005.2L1206.96 925.4H1223.76V1025H1210.86V958.25L1193.76 1025H1179.66L1162.56 958.25V1025H1149.66V925.4H1166.46ZM1266.23 1026.95C1244.33 1026.95 1228.13 1011.2 1228.13 990.5C1228.13 969.65 1244.33 954.05 1266.23 954.05C1288.13 954.05 1304.33 969.65 1304.33 990.5C1304.33 1011.2 1288.13 1026.95 1266.23 1026.95ZM1266.23 1014.95C1281.08 1014.95 1291.43 1004 1291.43 990.5C1291.43 976.85 1281.08 966.05 1266.23 966.05C1251.38 966.05 1241.03 976.85 1241.03 990.5C1241.03 1004 1251.38 1014.95 1266.23 1014.95ZM1349.65 954.05C1368.4 954.05 1380.85 965.6 1380.85 984.35V1025H1367.95V985.4C1367.95 973.1 1360.75 966.05 1348.45 966.05C1335.1 966.05 1325.05 975.8 1325.05 989.15V1025H1312.15V956H1325.05V963.5C1329.85 957.95 1338.25 954.05 1349.65 954.05ZM1425.27 1026.95C1403.37 1026.95 1387.17 1011.2 1387.17 990.5C1387.17 969.65 1403.37 954.05 1425.27 954.05C1447.17 954.05 1463.37 969.65 1463.37 990.5C1463.37 1011.2 1447.17 1026.95 1425.27 1026.95ZM1425.27 1014.95C1440.12 1014.95 1450.47 1004 1450.47 990.5C1450.47 976.85 1440.12 966.05 1425.27 966.05C1410.42 966.05 1400.07 976.85 1400.07 990.5C1400.07 1004 1410.42 1014.95 1425.27 1014.95Z" fill="black"/>
<path d="M824.59 1411L810.478 1372.19H737.65L723.538 1411H700.354L762.346 1243.67H786.286L848.026 1411H824.59ZM774.19 1272.4L745.462 1351.28H802.918L774.19 1272.4ZM904.252 1291.8C940.036 1291.8 964.228 1308.18 964.228 1337.16V1411H942.556V1398.4C932.224 1408.23 918.112 1414.28 897.448 1414.28C867.964 1414.28 846.544 1401.93 846.544 1375.72C846.544 1347.5 870.988 1338.17 900.22 1338.17H942.556C942.556 1319.02 926.68 1311.96 904 1311.96C888.124 1311.96 872.248 1317.76 866.956 1328.85H843.268C850.828 1305.16 874.768 1291.8 904.252 1291.8ZM942.556 1364.63V1357.07H899.968C879.808 1357.07 868.216 1362.87 868.216 1375.72C868.216 1388.57 880.312 1394.12 898.96 1394.12C925.924 1394.12 942.556 1382.02 942.556 1364.63Z" fill="black"/>
<path d="M1177.25 1243.67H1245.79C1270.49 1243.67 1296.95 1256.52 1296.95 1290.8C1296.95 1307.68 1289.64 1319.27 1277.29 1327.34C1289.64 1335.4 1296.95 1346.99 1296.95 1363.88C1296.95 1398.15 1270.49 1411 1245.79 1411H1177.25V1243.67ZM1274.27 1363.88C1274.27 1346.99 1262.42 1337.92 1245.54 1337.92H1199.93V1389.83H1245.54C1262.42 1389.83 1274.27 1380.76 1274.27 1363.88ZM1274.27 1290.8C1274.27 1273.91 1262.42 1264.84 1245.54 1264.84H1199.93V1316.75H1245.54C1262.42 1316.75 1274.27 1307.68 1274.27 1290.8ZM1307.81 1242.41H1329.48V1307.68C1338.56 1298.1 1354.18 1291.8 1371.57 1291.8C1411.64 1291.8 1433.56 1321.04 1433.56 1353.04C1433.56 1385.04 1411.64 1414.28 1371.57 1414.28C1354.18 1414.28 1338.56 1407.98 1329.48 1398.4V1411H1307.81V1242.41ZM1328.73 1353.04C1328.73 1380.76 1349.64 1394.12 1371.06 1394.12C1395 1394.12 1411.89 1375.47 1411.89 1353.04C1411.89 1330.61 1395 1311.96 1371.06 1311.96C1349.64 1311.96 1328.73 1325.32 1328.73 1353.04Z" fill="black"/>
<path d="M1699.97 1393.11C1717.11 1393.11 1730.21 1384.29 1738.27 1369.42H1762.21C1751.88 1396.89 1728.95 1414.28 1699.97 1414.28C1657.63 1414.28 1630.17 1377.99 1630.17 1327.34C1630.17 1276.68 1657.63 1240.4 1699.97 1240.4C1728.95 1240.4 1751.88 1258.04 1762.21 1285.25H1738.27C1730.21 1270.38 1717.11 1261.56 1699.97 1261.56C1670.74 1261.56 1652.85 1288.28 1652.85 1327.34C1652.85 1366.4 1670.74 1393.11 1699.97 1393.11ZM1890.76 1328.85H1867.33C1860.78 1318.52 1847.67 1311.96 1832.3 1311.96C1806.6 1311.96 1789.96 1330.11 1789.96 1353.04C1789.96 1375.97 1806.6 1394.12 1832.3 1394.12C1847.67 1394.12 1860.78 1387.56 1867.33 1377.23H1890.76C1881.69 1399.66 1860.02 1414.28 1832.3 1414.28C1795.76 1414.28 1768.29 1388.32 1768.29 1353.04C1768.29 1317.76 1795.76 1291.8 1832.3 1291.8C1860.02 1291.8 1881.69 1306.42 1890.76 1328.85Z" fill="black"/>
<rect x="-97" y="378" width="856" height="207" fill="white" stroke="black" stroke-width="4"/>
<line y1="2" x2="2480" y2="2" stroke="black" stroke-width="4" stroke-dasharray="8 8"/>
</g>
<defs>
<filter id="filter0_d_188_66" x="393.988" y="289.1" width="1567.46" height="204.8" filterUnits="userSpaceOnUse" color-interpolation-filters="sRGB">
<feFlood flood-opacity="0" result="BackgroundImageFix"/>
<feColorMatrix in="SourceAlpha" type="matrix" values="0 0 0 0 0 0 0 0 0 0 0 0 0 0 0 0 0 0 127 0" result="hardAlpha"/>
<feOffset dy="7"/>
<feGaussianBlur stdDeviation="3.95"/>
<feComposite in2="hardAlpha" operator="out"/>
<feColorMatrix type="matrix" values="0 0 0 0 0 0 0 0 0 0 0 0 0 0 0 0 0 0 0.25 0"/>
<feBlend mode="normal" in2="BackgroundImageFix" result="effect1_dropShadow_188_66"/>
<feBlend mode="normal" in="SourceGraphic" in2="effect1_dropShadow_188_66" result="shape"/>
</filter>
<filter id="filter1_d_188_66" x="517.988" y="881.1" width="1567.46" height="204.8" filterUnits="userSpaceOnUse" color-interpolation-filters="sRGB">
<feFlood flood-opacity="0" result="BackgroundImageFix"/>
<feColorMatrix in="SourceAlpha" type="matrix" values="0 0 0 0 0 0 0 0 0 0 0 0 0 0 0 0 0 0 127 0" result="hardAlpha"/>
<feOffset dy="7"/>
<feGaussianBlur stdDeviation="3.95"/>
<feComposite in2="hardAlpha" operator="out"/>
<feColorMatrix type="matrix" values="0 0 0 0 0 0 0 0 0 0 0 0 0 0 0 0 0 0 0.25 0"/>
<feBlend mode="normal" in2="BackgroundImageFix" result="effect1_dropShadow_188_66"/>
<feBlend mode="normal" in="SourceGraphic" in2="effect1_dropShadow_188_66" result="shape"/>
</filter>
</defs>
</svg>
