<svg width="2480" height="1750" viewBox="0 0 2480 1750" fill="none" xmlns="http://www.w3.org/2000/svg">
<mask id="mask0_185_5" style="mask-type:alpha" maskUnits="userSpaceOnUse" x="0" y="0" width="2480" height="1750">
<rect width="2480" height="1750" fill="#D9D9D9"/>
</mask>
<g mask="url(#mask0_185_5)">
<rect width="2480" height="1750" fill="#D9D9D9"/>
<line y1="1480" x2="2480" y2="1480" stroke="black" stroke-width="4"/>
<path d="M1816.2 514.008H1886.6V524.76H1857.16V599H1845.64V524.76H1816.2V514.008ZM1903.62 599H1892.62V540.12H1903.62V582.872L1938.06 540.12H1949.06V599H1938.06V556.248L1903.62 599ZM1961.81 549.848V540.12H2018.39V549.848H1995.6V599H1984.59V549.848H1961.81ZM2049.93 598.232L2023.56 540.12H2035.98L2056.07 584.664L2076.17 540.12H2087.94L2059.78 602.2C2051.72 619.864 2050.18 625.112 2036.23 625.112H2030.6V615.384H2034.18C2040.97 615.384 2043.53 612.952 2047.5 603.864L2049.93 598.232ZM2101.62 540.12H2148.73V599H2137.72V549.848H2112.63V565.08C2112.63 579.928 2111.48 599 2091.9 599H2088.19V588.632H2090.49C2101.5 588.632 2101.62 575.192 2101.62 565.08V540.12ZM2201.35 559.576C2216.59 559.576 2223.5 568.792 2223.5 579.288C2223.5 589.912 2216.59 599 2201.35 599H2169.87V540.12H2180.87V559.576H2201.35ZM2200.97 589.272C2208.01 589.272 2212.49 585.688 2212.49 579.288C2212.49 572.888 2208.01 569.304 2200.97 569.304H2180.87V589.272H2200.97ZM2283.06 540.12H2294.06V599H2283.06V574.168H2248.62V599H2237.62V540.12H2248.62V564.44H2283.06V540.12ZM2325.5 599H2314.49V540.12H2325.5V582.872L2359.93 540.12H2370.94V599H2359.93V556.248L2325.5 599ZM2391.37 540.12H2402.37V565.848L2430.66 540.12H2445.38L2412.74 569.56L2445.38 599H2430.66L2402.37 574.808V599H2391.37V540.12Z" fill="black"/>
<path d="M1661 131H1686.55V352.439H1719.56V270.996V189.554H1919.72V270.996V352.439H1942.08V281.11H1969.76V205.523H2157.14V189.554H2163.53H2353.04V281.11V352.439H2435.02V131H2462.71V1581H2435.02V1489.44L2407.34 1468.15H1719.56L1686.55 1500.09V1581H1661V131Z" fill="white"/>
<path d="M2526.59 1581H2498.91V131H2526.59V352.439H3277.19V131H3307V1581H3277.19V1489.44L3246.31 1468.15H2560.66L2526.59 1500.09V1581Z" fill="white"/>
<path d="M1719.56 352.439H1686.55V131H1661V1581H1686.55V1500.09L1719.56 1468.15H2407.34L2435.02 1489.44V1581H2462.71V131H2435.02V352.439H2353.04M1719.56 352.439H1919.72M1719.56 352.439V270.996M1919.72 352.439V270.996M1919.72 352.439H1942.08M1719.56 270.996V189.554H1919.72V270.996M1719.56 270.996H1919.72M1942.08 352.439V281.11H1969.76M1942.08 352.439H2137.98M2137.98 352.439V281.11M2137.98 352.439H2157.14M2137.98 281.11H1969.76M2137.98 281.11H2157.14M2163.53 281.11V205.523H2157.14M2163.53 281.11H2157.14M2163.53 281.11H2353.04M1969.76 281.11V205.523H2157.14M2353.04 352.439H2157.14M2353.04 352.439V281.11M2157.14 352.439V281.11M2353.04 281.11V189.554H2163.53H2157.14V205.523M1719.56 816.609H1686.55V430.156L1719.56 398.217H2407.34L2435.02 430.156V816.609H2366.88M1719.56 816.609V767.637H1725.95M1719.56 816.609H1758.95M2366.88 816.609V767.637H2359.43M2366.88 816.609H2327.49M2327.49 816.609V788.929H2189.08V816.609M2327.49 816.609H2189.08M2189.08 816.609H2149.69M2110.3 816.609V788.929H1974.02V816.609M2110.3 816.609H1974.02M2110.3 816.609H2149.69M1974.02 816.609H1899.49M1899.49 816.609V788.929H1758.95V816.609M1899.49 816.609H1758.95M2149.69 767.637V816.609M2149.69 767.637H2174.18M2149.69 767.637H1919.72M2359.43 767.637V630.302H2174.18M2359.43 767.637H2174.18M2174.18 630.302V647.336M2174.18 630.302V527.035M2174.18 767.637V647.336M2174.18 647.336H1919.72M1919.72 647.336V597.3H1725.95V692.05M1919.72 647.336V692.05M1919.72 767.637H1725.95M1919.72 767.637V692.05M1899.49 597.3V527.035M2174.18 527.035V423.768H2067.71M2174.18 527.035H2067.71M1899.49 527.035V423.768H2041.09M1899.49 527.035H2041.09M2067.71 527.035V583.46H2041.09V527.035M2067.71 527.035H2041.09M2067.71 423.768V475.934H2041.09V423.768M2067.71 423.768H2041.09M1725.95 767.637V692.05M1919.72 692.05H1725.95M1719.56 1422.37H1686.55V885.809L1719.56 859.194H2407.34L2435.02 885.809V1422.37H2366.88M1719.56 1422.37V1374.47H1725.95M1719.56 1422.37H1758.95M2366.88 1422.37V1374.47H2359.43M2366.88 1422.37H2327.49M2327.49 1422.37V1397.89H2189.08V1422.37M2327.49 1422.37H2189.08M2189.08 1422.37H2149.69M2149.69 1422.37H2110.3M2149.69 1422.37V1374.47M2110.3 1422.37V1397.89H1974.02V1422.37M2110.3 1422.37H1974.02M1974.02 1422.37H1899.49M1899.49 1422.37V1397.89H1758.95V1422.37M1899.49 1422.37H1758.95M2149.69 1374.47H1919.72M2149.69 1374.47H2174.18M2359.43 1374.47V1102.99H2174.18M2359.43 1374.47H2174.18M2174.18 1102.99V1029.53H2065.58M2174.18 1102.99V1133.86M1899.49 1069.99V1029.53H2037.9M1899.49 1069.99H1734.46V1205.19M1899.49 1069.99H1919.72V1133.86M1734.46 1205.19H1725.95V1289.83M1734.46 1205.19H1919.72M1725.95 1374.47H1919.72M1725.95 1374.47V1289.83M1919.72 1374.47V1289.83M1919.72 1205.19V1133.86M1919.72 1205.19V1254.16M1919.72 1289.83H1725.95M1919.72 1289.83V1254.16M2065.58 1029.53V1088.09H2037.9V1029.53M2065.58 1029.53H2037.9M1919.72 1133.86H2037.9M2174.18 1133.86V1254.16M2174.18 1133.86H2065.58M2174.18 1374.47V1254.16M2174.18 1254.16H1919.72M2065.58 1133.86V1189.22H2037.9V1133.86M2065.58 1133.86H2037.9M2498.91 1581H2526.59V1500.09L2560.66 1468.15H3246.31L3277.19 1489.44V1581H3307V131H3277.19V352.439H2526.59V131H2498.91V1581ZM2526.59 1422.37H3277.19V885.809L3246.31 859.194H2560.66L2526.59 885.809V1422.37ZM2526.59 816.609H3277.19V430.156L3246.31 398.217H2560.66L2526.59 430.156V816.609ZM1777.05 292.821V324.759H1803.67V292.821H1777.05ZM1989.99 324.759H2032.57V340.728H1989.99V324.759ZM2020.86 249.172V270.996H2061.32V249.172H2020.86ZM2208.25 292.821H2232.73V324.759H2208.25V292.821ZM1770.66 371.602V385.442H1844.13V371.602H1770.66ZM1899.49 371.602H1974.02V385.442H1899.49V371.602ZM2028.32 371.602H2101.78V385.442H2028.32V371.602ZM2157.14 371.602H2232.73V385.442H2157.14V371.602ZM2285.97 371.602H2359.43V385.442H2285.97V371.602ZM2232.73 692.05H2270V647.336H2232.73V692.05ZM2091.13 659.047H2149.69V682.468H2091.13V659.047ZM1777.05 735.699H1803.67V701.631H1777.05V735.699ZM1870.74 647.336H1899.49V610.075H1870.74V647.336ZM1774.92 1306.33H1799.41V1342.53H1774.92V1306.33ZM1872.87 1254.16H1899.49V1217.97H1872.87V1254.16ZM1799.41 1088.09H1830.28V1133.86H1793.02V1088.09H1799.41ZM2091.13 1264.81H2149.69V1289.83H2091.13V1264.81ZM2234.86 1118.96H2271.06V1164.74H2234.86V1118.96ZM2234.86 1254.16H2271.06V1302.07H2234.86V1254.16Z" stroke="black" stroke-width="4"/>
<path d="M267 784H887V812.866V849.476V886.086V926.92V963.53V1000.14V1040.97V1077.58V1112.79V1151.51V1189.53V1224.73V1265.56V1301.47V1339.49V1379.62V1415.52V1448.26V1481H267V1448.26V1415.52V1379.62V1339.49V1301.47V1265.56V1224.73V1189.53V1151.51V1112.79V1077.58V1040.97V1000.14V963.53V926.92V886.086V849.476V812.866V784Z" fill="white"/>
<path d="M267 812.866V784H887V812.866M267 812.866H887M267 812.866V849.476M887 812.866V849.476M887 849.476H267M887 849.476V886.086M267 849.476V886.086M267 886.086H887M267 886.086V926.92M887 886.086V926.92M887 926.92H267M887 926.92V963.53M267 926.92V963.53M267 963.53H887M267 963.53V1000.14M887 963.53V1000.14M887 1000.14H267M887 1000.14V1040.97M267 1000.14V1040.97M267 1040.97H887M267 1040.97V1077.58M887 1040.97V1077.58M887 1077.58H267M887 1077.58V1112.79M267 1077.58V1112.79M267 1112.79H887M267 1112.79V1151.51M887 1112.79V1151.51M887 1151.51H267M887 1151.51V1189.53M267 1151.51V1189.53M267 1189.53H887M267 1189.53V1224.73M887 1189.53V1224.73M887 1224.73H267M887 1224.73V1265.56M267 1224.73V1265.56M267 1265.56H887M267 1265.56V1301.47M887 1265.56V1301.47M887 1301.47H267M887 1301.47V1339.49M267 1301.47V1339.49M267 1339.49H887M267 1339.49V1379.62M887 1339.49V1379.62M267 1379.62H887M267 1379.62V1415.52M887 1379.62V1415.52M267 1415.52H887M267 1415.52V1448.26M887 1415.52V1448.26M267 1448.26V1481H887V1448.26M267 1448.26H887" stroke="black" stroke-width="4"/>
<circle cx="675.026" cy="1587.21" r="18.8433" fill="white" stroke="black" stroke-width="4"/>
<circle cx="848.443" cy="1587.21" r="18.8433" fill="white" stroke="black" stroke-width="4"/>
<circle cx="915.142" cy="1587.21" r="18.8433" fill="white" stroke="black" stroke-width="4"/>
<circle cx="1086.89" cy="1587.21" r="18.8433" fill="white" stroke="black" stroke-width="4"/>
<circle cx="675.026" cy="1587.21" r="8.83852" fill="white" stroke="black" stroke-width="4"/>
<circle cx="848.443" cy="1587.21" r="8.83852" fill="white" stroke="black" stroke-width="4"/>
<circle cx="915.141" cy="1587.21" r="8.83852" fill="white" stroke="black" stroke-width="4"/>
<circle cx="1086.89" cy="1587.21" r="8.83852" fill="white" stroke="black" stroke-width="4"/>
<path d="M646.679 1527.18V1192.02L620 1142H832.602L858.448 1192.02V1307.08" stroke="black" stroke-width="4"/>
<path d="M1124.41 1527.18V1553.03H1093.56V1584.71C1092.89 1590.71 1083.83 1590.55 1079.39 1589.71L1066.05 1553.03H920.144V1584.71C918.81 1591.38 911.251 1590.83 907.638 1589.71L891.797 1553.03H854.279V1584.71C853.612 1592.05 844.552 1591.1 840.105 1589.71L826.766 1553.03H680.863V1584.71C679.529 1592.72 670.858 1591.38 666.689 1589.71L652.516 1553.03H631.672V1527.18H724.217V1389.62H826.766V1304.58H960.163V1286.24H988.51H1099.4V1527.18H1124.41Z" fill="white"/>
<path d="M652.516 1553.03H631.672V1527.18H724.217M652.516 1553.03L666.689 1589.71C670.858 1591.38 679.529 1592.72 680.863 1584.71V1553.03M652.516 1553.03H680.863M680.863 1553.03H826.766M826.766 1553.03L840.105 1589.71C844.552 1591.1 853.612 1592.05 854.279 1584.71V1553.03M826.766 1553.03H854.279M854.279 1553.03H891.797M891.797 1553.03L907.638 1589.71C911.251 1590.83 918.81 1591.38 920.144 1584.71V1553.03M891.797 1553.03H920.144M920.144 1553.03H1066.05M1066.05 1553.03L1079.39 1589.71C1083.83 1590.55 1092.89 1590.71 1093.56 1584.71V1553.03M1066.05 1553.03H1093.56M1093.56 1553.03H1124.41V1527.18H1099.4M724.217 1527.18V1389.62H826.766M724.217 1527.18H965.165M826.766 1389.62V1304.58H960.163M826.766 1389.62H965.165M960.163 1304.58V1286.24H988.51M960.163 1304.58H965.165V1389.62M1099.4 1527.18V1286.24H988.51M1099.4 1527.18H988.51M965.165 1389.62V1527.18M988.51 1286.24V1527.18M988.51 1527.18H965.165M1050.21 1466.32H1086.89V1514.68H1050.21V1466.32ZM795.918 1438.81H847.609V1401.29H795.918V1438.81ZM920.144 1315.42H955.994V1334.59H920.144V1315.42Z" stroke="black" stroke-width="4"/>
<line y1="1704" x2="2480" y2="1704" stroke="black" stroke-width="4"/>
<rect x="942" y="825" width="663" height="380" fill="white" stroke="black" stroke-width="4"/>
<circle cx="959" cy="1189" r="8" fill="white" stroke="black" stroke-width="4"/>
<circle cx="958" cy="841" r="8" fill="white" stroke="black" stroke-width="4"/>
<circle cx="1589" cy="841" r="8" fill="white" stroke="black" stroke-width="4"/>
<circle cx="1589" cy="1189" r="8" fill="white" stroke="black" stroke-width="4"/>
<rect x="189" y="267" width="1312" height="336" fill="white" stroke="black" stroke-width="4"/>
<circle cx="205" cy="587" r="8" fill="white" stroke="black" stroke-width="4"/>
<circle cx="205" cy="283" r="8" fill="white" stroke="black" stroke-width="4"/>
<circle cx="1483" cy="284" r="8" fill="white" stroke="black" stroke-width="4"/>
<circle cx="1484" cy="587" r="8" fill="white" stroke="black" stroke-width="4"/>
</g>
</svg>
