<svg width="2480" height="1750" viewBox="0 0 2480 1750" fill="none" xmlns="http://www.w3.org/2000/svg">
<rect width="2480" height="1750" fill="#D9D9D9"/>
<path d="M2125.5 652.5L2117 645.5" stroke="black" stroke-width="4"/>
<path d="M2126 653.5L2128.5 645" stroke="black" stroke-width="4"/>
<path d="M847.5 646L842 653.5L837 645L847.5 646Z" stroke="black" stroke-width="4"/>
<path d="M435.6 458.8C487.6 458.8 523.6 484.8 523.6 530.8V648H489.2V628C474.8 643.6 453.6 653.2 425.2 653.2C382 653.2 350.4 633.2 350.4 592C350.4 547.6 388.8 532.4 431.2 532.4H489.2C489.2 502 466 490.8 435.6 490.8C413.6 490.8 391.6 500 384.4 517.6H346C356.8 479.6 393.2 458.8 435.6 458.8ZM489.2 574.4V562.4H430.8C402.4 562.4 384.8 572 384.8 592C384.8 612 402.4 621.2 428.8 621.2C466 621.2 489.2 602 489.2 574.4Z" fill="black"/>
<mask id="path-6-inside-1_188_86" fill="white">
<path fill-rule="evenodd" clip-rule="evenodd" d="M408.045 833.89L635.762 885.601L681.03 989.909L567.864 1488.26L209 1406.77L320.272 916.764L408.045 833.89ZM505.173 936.184C518.342 939.175 531.442 930.923 534.432 917.754C537.423 904.585 529.171 891.485 516.002 888.495C502.833 885.504 489.733 893.756 486.743 906.925C483.752 920.094 492.004 933.194 505.173 936.184Z"/>
</mask>
<path fill-rule="evenodd" clip-rule="evenodd" d="M408.045 833.89L635.762 885.601L681.03 989.909L567.864 1488.26L209 1406.77L320.272 916.764L408.045 833.89ZM505.173 936.184C518.342 939.175 531.442 930.923 534.432 917.754C537.423 904.585 529.171 891.485 516.002 888.495C502.833 885.504 489.733 893.756 486.743 906.925C483.752 920.094 492.004 933.194 505.173 936.184Z" fill="white"/>
<path d="M635.762 885.601L639.432 884.008L638.625 882.149L636.648 881.7L635.762 885.601ZM408.045 833.89L408.931 829.99L406.85 829.517L405.299 830.982L408.045 833.89ZM681.03 989.909L684.931 990.795L685.221 989.518L684.7 988.316L681.03 989.909ZM567.864 1488.26L566.978 1492.17L570.879 1493.05L571.764 1489.15L567.864 1488.26ZM209 1406.77L205.099 1405.89L204.213 1409.79L208.114 1410.67L209 1406.77ZM320.272 916.764L317.525 913.855L316.64 914.691L316.371 915.878L320.272 916.764ZM636.648 881.7L408.931 829.99L407.159 837.791L634.877 889.501L636.648 881.7ZM684.7 988.316L639.432 884.008L632.093 887.193L677.361 991.501L684.7 988.316ZM571.764 1489.15L684.931 990.795L677.13 989.023L563.963 1487.38L571.764 1489.15ZM208.114 1410.67L566.978 1492.17L568.749 1484.36L209.886 1402.87L208.114 1410.67ZM316.371 915.878L205.099 1405.89L212.901 1407.66L324.172 917.649L316.371 915.878ZM405.299 830.982L317.525 913.855L323.018 919.672L410.791 836.799L405.299 830.982ZM530.531 916.868C528.03 927.883 517.073 934.785 506.059 932.283L504.287 940.085C519.61 943.564 534.853 933.963 538.333 918.64L530.531 916.868ZM515.116 892.395C526.131 894.896 533.033 905.853 530.531 916.868L538.333 918.64C541.813 903.316 532.211 888.073 516.888 884.594L515.116 892.395ZM490.643 907.81C493.145 896.796 504.102 889.894 515.116 892.395L516.888 884.594C501.564 881.114 486.322 890.715 482.842 906.039L490.643 907.81ZM506.059 932.283C495.044 929.782 488.142 918.825 490.643 907.81L482.842 906.039C479.362 921.362 488.964 936.605 504.287 940.085L506.059 932.283Z" fill="black" mask="url(#path-6-inside-1_188_86)"/>
<mask id="path-8-inside-2_188_86" fill="white">
<path fill-rule="evenodd" clip-rule="evenodd" d="M810.67 881.497L1042.05 850.008L1121.05 931.797L1189.96 1438.17L825.32 1487.8L757.56 989.901L810.67 881.497ZM937.518 943.201C950.899 941.38 960.27 929.056 958.449 915.675C956.628 902.294 944.304 892.923 930.923 894.744C917.542 896.565 908.171 908.889 909.992 922.27C911.813 935.651 924.137 945.022 937.518 943.201Z"/>
</mask>
<path fill-rule="evenodd" clip-rule="evenodd" d="M810.67 881.497L1042.05 850.008L1121.05 931.797L1189.96 1438.17L825.32 1487.8L757.56 989.901L810.67 881.497ZM937.518 943.201C950.899 941.38 960.27 929.056 958.449 915.675C956.628 902.294 944.304 892.923 930.923 894.744C917.542 896.565 908.171 908.889 909.992 922.27C911.813 935.651 924.137 945.022 937.518 943.201Z" fill="white"/>
<path d="M1042.05 850.008L1044.93 847.229L1043.52 845.771L1041.51 846.044L1042.05 850.008ZM810.67 881.497L810.13 877.533L808.016 877.821L807.078 879.737L810.67 881.497ZM1121.05 931.797L1125.01 931.258L1124.83 929.96L1123.92 929.018L1121.05 931.797ZM1189.96 1438.17L1190.5 1442.14L1194.46 1441.6L1193.92 1437.63L1189.96 1438.17ZM825.32 1487.8L821.356 1488.34L821.895 1492.3L825.859 1491.76L825.32 1487.8ZM757.56 989.901L753.968 988.141L753.433 989.235L753.597 990.441L757.56 989.901ZM1041.51 846.044L810.13 877.533L811.209 885.46L1042.59 853.971L1041.51 846.044ZM1123.92 929.018L1044.93 847.229L1039.17 852.787L1118.17 934.576L1123.92 929.018ZM1193.92 1437.63L1125.01 931.258L1117.08 932.337L1185.99 1438.71L1193.92 1437.63ZM825.859 1491.76L1190.5 1442.14L1189.42 1434.21L824.78 1483.83L825.859 1491.76ZM753.597 990.441L821.356 1488.34L829.283 1487.26L761.524 989.362L753.597 990.441ZM807.078 879.737L753.968 988.141L761.152 991.661L814.262 883.257L807.078 879.737ZM954.486 916.215C956.009 927.407 948.171 937.715 936.979 939.238L938.057 947.165C953.627 945.046 964.532 930.706 962.413 915.136L954.486 916.215ZM931.463 898.708C942.655 897.184 952.963 905.023 954.486 916.215L962.413 915.136C960.294 899.566 945.954 888.662 930.384 890.781L931.463 898.708ZM913.956 921.731C912.432 910.538 920.271 900.231 931.463 898.708L930.384 890.781C914.814 892.9 903.91 907.239 906.029 922.809L913.956 921.731ZM936.979 939.238C925.786 940.761 915.479 932.923 913.956 921.731L906.029 922.809C908.148 938.379 922.487 949.284 938.057 947.165L936.979 939.238Z" fill="black" mask="url(#path-8-inside-2_188_86)"/>
<mask id="path-10-inside-3_188_86" fill="white">
<path fill-rule="evenodd" clip-rule="evenodd" d="M1368.2 795.112L1601.69 798.975L1667.4 891.769L1658.95 1402.74L1291 1396.66L1299.31 894.239L1368.2 795.112ZM1484.26 875.289C1497.76 875.512 1508.89 864.747 1509.11 851.245C1509.34 837.742 1498.57 826.615 1485.07 826.392C1471.57 826.168 1460.44 836.933 1460.22 850.436C1459.99 863.938 1470.76 875.065 1484.26 875.289Z"/>
</mask>
<path fill-rule="evenodd" clip-rule="evenodd" d="M1368.2 795.112L1601.69 798.975L1667.4 891.769L1658.95 1402.74L1291 1396.66L1299.31 894.239L1368.2 795.112ZM1484.26 875.289C1497.76 875.512 1508.89 864.747 1509.11 851.245C1509.34 837.742 1498.57 826.615 1485.07 826.392C1471.57 826.168 1460.44 836.933 1460.22 850.436C1459.99 863.938 1470.76 875.065 1484.26 875.289Z" fill="white"/>
<path d="M1601.69 798.975L1604.95 796.663L1603.78 795.009L1601.75 794.975L1601.69 798.975ZM1368.2 795.112L1368.27 791.113L1366.14 791.077L1364.92 792.829L1368.2 795.112ZM1667.4 891.769L1671.4 891.835L1671.42 890.525L1670.67 889.457L1667.4 891.769ZM1658.95 1402.74L1658.88 1406.74L1662.88 1406.81L1662.95 1402.81L1658.95 1402.74ZM1291 1396.66L1287 1396.59L1286.93 1400.59L1290.93 1400.65L1291 1396.66ZM1299.31 894.239L1296.03 891.956L1295.33 892.956L1295.31 894.173L1299.31 894.239ZM1601.75 794.975L1368.27 791.113L1368.14 799.112L1601.62 802.974L1601.75 794.975ZM1670.67 889.457L1604.95 796.663L1598.42 801.286L1664.14 894.08L1670.67 889.457ZM1662.95 1402.81L1671.4 891.835L1663.4 891.702L1654.95 1402.68L1662.95 1402.81ZM1290.93 1400.65L1658.88 1406.74L1659.02 1398.74L1291.07 1392.66L1290.93 1400.65ZM1295.31 894.173L1287 1396.59L1295 1396.72L1303.31 894.305L1295.31 894.173ZM1364.92 792.829L1296.03 891.956L1302.6 896.522L1371.49 797.395L1364.92 792.829ZM1505.11 851.178C1504.93 862.472 1495.62 871.476 1484.33 871.289L1484.19 879.288C1499.91 879.548 1512.85 867.022 1513.11 851.311L1505.11 851.178ZM1485 830.391C1496.3 830.578 1505.3 839.885 1505.11 851.178L1513.11 851.311C1513.37 835.599 1500.85 822.652 1485.14 822.392L1485 830.391ZM1464.22 850.502C1464.4 839.208 1473.71 830.204 1485 830.391L1485.14 822.392C1469.42 822.132 1456.48 834.658 1456.22 850.37L1464.22 850.502ZM1484.33 871.289C1473.03 871.102 1464.03 861.796 1464.22 850.502L1456.22 850.37C1455.96 866.081 1468.48 879.028 1484.19 879.288L1484.33 871.289Z" fill="black" mask="url(#path-10-inside-3_188_86)"/>
<mask id="path-12-inside-4_188_86" fill="white">
<path fill-rule="evenodd" clip-rule="evenodd" d="M1973.08 783.861L2204.56 814.634L2259.14 914.389L2191.79 1420.98L1827 1372.48L1893.22 874.378L1973.08 783.861ZM2079.12 876.891C2092.5 878.671 2104.8 869.262 2106.58 855.875C2108.36 842.488 2098.95 830.194 2085.56 828.414C2072.18 826.635 2059.88 836.044 2058.1 849.431C2056.32 862.817 2065.73 875.112 2079.12 876.891Z"/>
</mask>
<path fill-rule="evenodd" clip-rule="evenodd" d="M1973.08 783.861L2204.56 814.634L2259.14 914.389L2191.79 1420.98L1827 1372.48L1893.22 874.378L1973.08 783.861ZM2079.12 876.891C2092.5 878.671 2104.8 869.262 2106.58 855.875C2108.36 842.488 2098.95 830.194 2085.56 828.414C2072.18 826.635 2059.88 836.044 2058.1 849.431C2056.32 862.817 2065.73 875.112 2079.12 876.891Z" fill="white"/>
<path d="M2204.56 814.634L2208.07 812.714L2207.1 810.936L2205.09 810.668L2204.56 814.634ZM1973.08 783.861L1973.61 779.896L1971.5 779.615L1970.08 781.215L1973.08 783.861ZM2259.14 914.389L2263.1 914.917L2263.27 913.618L2262.64 912.47L2259.14 914.389ZM2191.79 1420.98L2191.26 1424.94L2195.23 1425.47L2195.76 1421.5L2191.79 1420.98ZM1827 1372.48L1823.03 1371.95L1822.51 1375.92L1826.47 1376.45L1827 1372.48ZM1893.22 874.378L1890.22 871.732L1889.41 872.644L1889.25 873.851L1893.22 874.378ZM2205.09 810.668L1973.61 779.896L1972.56 787.826L2204.04 818.599L2205.09 810.668ZM2262.64 912.47L2208.07 812.714L2201.05 816.553L2255.63 916.309L2262.64 912.47ZM2195.76 1421.5L2263.1 914.917L2255.17 913.862L2187.83 1420.45L2195.76 1421.5ZM1826.47 1376.45L2191.26 1424.94L2192.32 1417.01L1827.53 1368.52L1826.47 1376.45ZM1889.25 873.851L1823.03 1371.95L1830.96 1373.01L1897.18 874.905L1889.25 873.851ZM1970.08 781.215L1890.22 871.732L1896.22 877.025L1976.08 786.508L1970.08 781.215ZM2102.61 855.348C2101.13 866.545 2090.84 874.415 2079.64 872.926L2078.59 880.857C2094.17 882.927 2108.47 871.979 2110.54 856.402L2102.61 855.348ZM2085.04 832.379C2096.23 833.868 2104.1 844.151 2102.61 855.348L2110.54 856.402C2112.61 840.826 2101.67 826.52 2086.09 824.449L2085.04 832.379ZM2062.07 849.958C2063.56 838.761 2073.84 830.891 2085.04 832.379L2086.09 824.449C2070.51 822.378 2056.21 833.327 2054.14 848.903L2062.07 849.958ZM2079.64 872.926C2068.45 871.438 2060.58 861.154 2062.07 849.958L2054.14 848.903C2052.07 864.48 2063.01 878.786 2078.59 880.857L2079.64 872.926Z" fill="black" mask="url(#path-12-inside-4_188_86)"/>
<path d="M2109 849.5C2100.17 847.167 2082.4 839.3 2082 826.5C2081.75 818.491 2089.84 809.543 2098.5 802.496M2113 792.5L2118.5 805L2098.5 802.496M2113 792.5C2109.07 794.746 2103.68 798.281 2098.5 802.496M2113 792.5C2108.33 780.833 2100.4 751.2 2106 726C2113 694.5 2135 676.5 2124 647.5" stroke="black" stroke-width="4"/>
<path d="M1004.2 515.2C1033 531.6 1039 554.4 1039 576.4C1039 616 1012.2 648 954.2 648H833V382.4H954.2C1012.2 382.4 1039 414.4 1039 454C1039 476 1033 498.8 1004.2 515.2ZM869 614.4H953.8C984.2 614.4 1003 600.4 1003 573.2C1003 546 984.2 532 953.8 532H869V614.4ZM869 498.4H953.8C984.2 498.4 1003 484.4 1003 457.2C1003 430 984.2 416 953.8 416H869V498.4Z" fill="black"/>
<path d="M1595 435.6L1473 648L1351 435.6V648H1315V382.4H1360.6L1473.8 580.8L1587 382.4H1631V648H1595V435.6Z" fill="black"/>
<path d="M2132 460.4C2132 502.8 2104.4 538.4 2043.2 538.4H2014.4L2139.2 648H2087.2L1962.8 538.4H1954V648H1918V382.4H2043.2C2104.4 382.4 2132 418 2132 460.4ZM2096 460.4C2096 431.2 2075.6 416 2043.2 416H1954V504.8H2043.2C2075.6 504.8 2096 489.6 2096 460.4Z" fill="black"/>
<path d="M498 891.5C502.833 896.167 515.8 903.5 529 895.5C537.427 890.393 535.162 876.728 530.298 864M521 845L504 857L530.298 864M521 845C523.953 849.882 527.543 856.79 530.298 864M521 845C501.5 833.167 462.8 797.6 464 750C465.2 702.4 443.167 661.5 432 647" stroke="black" stroke-width="4"/>
<path d="M427.5 652L439 658V650.5L427.5 652Z" stroke="black" stroke-width="4"/>
<path d="M908.5 917C914.833 917 928.3 912.3 931.5 893.5C933.597 881.182 923.931 873.057 913.5 868.309M898 863.5L892.5 871.5L913.5 868.309M898 863.5C902.31 864.247 908.011 865.81 913.5 868.309M898 863.5C873.833 830.833 829 741.3 843 644.5" stroke="black" stroke-width="4"/>
<path d="M1467 833.5C1473.83 837.667 1490.6 843.5 1503 833.5C1511.65 826.523 1505.07 811.513 1496.56 799M1485.5 785L1473 798L1496.56 799M1485.5 785C1488.82 788.627 1492.87 793.579 1496.56 799M1485.5 785C1480 732.333 1469.4 626.3 1471 623.5" stroke="black" stroke-width="4"/>
<path d="M1472.5 649.5L1478 635" stroke="black" stroke-width="4"/>
<path d="M1472 648.5L1467.5 634.5" stroke="black" stroke-width="4"/>
<line y1="2" x2="2480" y2="2" stroke="black" stroke-width="4" stroke-dasharray="8 8"/>
</svg>
