<svg width="2480" height="1750" viewBox="0 0 2480 1750" fill="none" xmlns="http://www.w3.org/2000/svg">
<rect width="2480" height="1750" fill="#D9D9D9"/>
<path d="M2125.5 652.5L2117 645.5" stroke="black" stroke-width="4"/>
<path d="M2126 653.5L2128.5 645" stroke="black" stroke-width="4"/>
<path d="M847.5 646L842 653.5L837 645L847.5 646Z" stroke="black" stroke-width="4"/>
<path d="M435.6 458.8C487.6 458.8 523.6 484.8 523.6 530.8V648H489.2V628C474.8 643.6 453.6 653.2 425.2 653.2C382 653.2 350.4 633.2 350.4 592C350.4 547.6 388.8 532.4 431.2 532.4H489.2C489.2 502 466 490.8 435.6 490.8C413.6 490.8 391.6 500 384.4 517.6H346C356.8 479.6 393.2 458.8 435.6 458.8ZM489.2 574.4V562.4H430.8C402.4 562.4 384.8 572 384.8 592C384.8 612 402.4 621.2 428.8 621.2C466 621.2 489.2 602 489.2 574.4Z" fill="black"/>
<mask id="path-6-inside-1_188_86" fill="white">
<path fill-rule="evenodd" clip-rule="evenodd" d="M408.045 833.89L635.762 885.601L681.03 989.909L567.864 1488.26L209 1406.77L320.272 916.764L408.045 833.89ZM505.173 936.184C518.342 939.175 531.442 930.923 534.432 917.754C537.423 904.585 529.171 891.485 516.002 888.495C502.833 885.504 489.733 893.756 486.743 906.925C483.752 920.094 492.004 933.194 505.173 936.184Z"/>
</mask>
<path fill-rule="evenodd" clip-rule="evenodd" d="M408.045 833.89L635.762 885.601L681.03 989.909L567.864 1488.26L209 1406.77L320.272 916.764L408.045 833.89ZM505.173 936.184C518.342 939.175 531.442 930.923 534.432 917.754C537.423 904.585 529.171 891.485 516.002 888.495C502.833 885.504 489.733 893.756 486.743 906.925C483.752 920.094 492.004 933.194 505.173 936.184Z" fill="white"/>
<path d="M635.762 885.601L639.432 884.008L638.625 882.149L636.648 881.7L635.762 885.601ZM408.045 833.89L408.931 829.99L406.85 829.517L405.299 830.982L408.045 833.89ZM681.03 989.909L684.931 990.795L685.221 989.518L684.7 988.316L681.03 989.909ZM567.864 1488.26L566.978 1492.17L570.879 1493.05L571.764 1489.15L567.864 1488.26ZM209 1406.77L205.099 1405.89L204.213 1409.79L208.114 1410.67L209 1406.77ZM320.272 916.764L317.525 913.855L316.64 914.691L316.371 915.878L320.272 916.764ZM636.648 881.7L408.931 829.99L407.159 837.791L634.877 889.501L636.648 881.7ZM684.7 988.316L639.432 884.008L632.093 887.193L677.361 991.501L684.7 988.316ZM571.764 1489.15L684.931 990.795L677.13 989.023L563.963 1487.38L571.764 1489.15ZM208.114 1410.67L566.978 1492.17L568.749 1484.36L209.886 1402.87L208.114 1410.67ZM316.371 915.878L205.099 1405.89L212.901 1407.66L324.172 917.649L316.371 915.878ZM405.299 830.982L317.525 913.855L323.018 919.672L410.791 836.799L405.299 830.982ZM530.531 916.868C528.03 927.883 517.073 934.785 506.059 932.283L504.287 940.085C519.61 943.564 534.853 933.963 538.333 918.64L530.531 916.868ZM515.116 892.395C526.131 894.896 533.033 905.853 530.531 916.868L538.333 918.64C541.813 903.316 532.211 888.073 516.888 884.594L515.116 892.395ZM490.643 907.81C493.145 896.796 504.102 889.894 515.116 892.395L516.888 884.594C501.564 881.114 486.322 890.715 482.842 906.039L490.643 907.81ZM506.059 932.283C495.044 929.782 488.142 918.825 490.643 907.81L482.842 906.039C479.362 921.362 488.964 936.605 504.287 940.085L506.059 932.283Z" fill="black" mask="url(#path-6-inside-1_188_86)"/>
<mask id="path-8-inside-2_188_86" fill="white">
<path fill-rule="evenodd" clip-rule="evenodd" d="M810.67 881.497L1042.05 850.008L1121.05 931.797L1189.96 1438.17L825.32 1487.8L757.56 989.901L810.67 881.497ZM937.518 943.201C950.899 941.38 960.27 929.056 958.449 915.675C956.628 902.294 944.304 892.923 930.923 894.744C917.542 896.565 908.171 908.889 909.992 922.27C911.813 935.651 924.137 945.022 937.518 943.201Z"/>
</mask>
<path fill-rule="evenodd" clip-rule="evenodd" d="M810.67 881.497L1042.05 850.008L1121.05 931.797L1189.96 1438.17L825.32 1487.8L757.56 989.901L810.67 881.497ZM937.518 943.201C950.899 941.38 960.27 929.056 958.449 915.675C956.628 902.294 944.304 892.923 930.923 894.744C917.542 896.565 908.171 908.889 909.992 922.27C911.813 935.651 924.137 945.022 937.518 943.201Z" fill="white"/>
<path d="M1042.05 850.008L1044.93 847.229L1043.52 845.771L1041.51 846.044L1042.05 850.008ZM810.67 881.497L810.13 877.533L808.016 877.821L807.078 879.737L810.67 881.497ZM1121.05 931.797L1125.01 931.258L1124.83 929.96L1123.92 929.018L1121.05 931.797ZM1189.96 1438.17L1190.5 1442.14L1194.46 1441.6L1193.92 1437.63L1189.96 1438.17ZM825.32 1487.8L821.356 1488.34L821.895 1492.3L825.859 1491.76L825.32 1487.8ZM757.56 989.901L753.968 988.141L753.433 989.235L753.597 990.441L757.56 989.901ZM1041.51 846.044L810.13 877.533L811.209 885.46L1042.59 853.971L1041.51 846.044ZM1123.92 929.018L1044.93 847.229L1039.17 852.787L1118.17 934.576L1123.92 929.018ZM1193.92 1437.63L1125.01 931.258L1117.08 932.337L1185.99 1438.71L1193.92 1437.63ZM825.859 1491.76L1190.5 1442.14L1189.42 1434.21L824.78 1483.83L825.859 1491.76ZM753.597 990.441L821.356 1488.34L829.283 1487.26L761.524 989.362L753.597 990.441ZM807.078 879.737L753.968 988.141L761.152 991.661L814.262 883.257L807.078 879.737ZM954.486 916.215C956.009 927.407 948.171 937.715 936.979 939.238L938.057 947.165C953.627 945.046 964.532 930.706 962.413 915.136L954.486 916.215ZM931.463 898.708C942.655 897.184 952.963 905.023 954.486 916.215L962.413 915.136C960.294 899.566 945.954 888.662 930.384 890.781L931.463 898.708ZM913.956 921.731C912.432 910.538 920.271 900.231 931.463 898.708L930.384 890.781C914.814 892.9 903.91 907.239 906.029 922.809L913.956 921.731ZM936.979 939.238C925.786 940.761 915.479 932.923 913.956 921.731L906.029 922.809C908.148 938.379 922.487 949.284 938.057 947.165L936.979 939.238Z" fill="black" mask="url(#path-8-inside-2_188_86)"/>
<mask id="path-10-inside-3_188_86" fill="white">
<path fill-rule="evenodd" clip-rule="evenodd" d="M1368.2 795.112L1601.69 798.975L1667.4 891.769L1658.95 1402.74L1291 1396.66L1299.31 894.239L1368.2 795.112ZM1484.26 875.289C1497.76 875.512 1508.89 864.747 1509.11 851.245C1509.34 837.742 1498.57 826.615 1485.07 826.392C1471.57 826.168 1460.44 836.933 1460.22 850.436C1459.99 863.938 1470.76 875.065 1484.26 875.289Z"/>
</mask>
<path fill-rule="evenodd" clip-rule="evenodd" d="M1368.2 795.112L1601.69 798.975L1667.4 891.769L1658.95 1402.74L1291 1396.66L1299.31 894.239L1368.2 795.112ZM1484.26 875.289C1497.76 875.512 1508.89 864.747 1509.11 851.245C1509.34 837.742 1498.57 826.615 1485.07 826.392C1471.57 826.168 1460.44 836.933 1460.22 850.436C1459.99 863.938 1470.76 875.065 1484.26 875.289Z" fill="white"/>
<path d="M1601.69 798.975L1604.95 796.663L1603.78 795.009L1601.75 794.975L1601.69 798.975ZM1368.2 795.112L1368.27 791.113L1366.14 791.077L1364.92 792.829L1368.2 795.112ZM1667.4 891.769L1671.4 891.835L1671.42 890.525L1670.67 889.457L1667.4 891.769ZM1658.95 1402.74L1658.88 1406.74L1662.88 1406.81L1662.95 1402.81L1658.95 1402.74ZM1291 1396.66L1287 1396.59L1286.93 1400.59L1290.93 1400.65L1291 1396.66ZM1299.31 894.239L1296.03 891.956L1295.33 892.956L1295.31 894.173L1299.31 894.239ZM1601.75 794.975L1368.27 791.113L1368.14 799.112L1601.62 802.974L1601.75 794.975ZM1670.67 889.457L1604.95 796.663L1598.42 801.286L1664.14 894.08L1670.67 889.457ZM1662.95 1402.81L1671.4 891.835L1663.4 891.702L1654.95 1402.68L1662.95 1402.81ZM1290.93 1400.65L1658.88 1406.74L1659.02 1398.74L1291.07 1392.66L1290.93 1400.65ZM1295.31 894.173L1287 1396.59L1295 1396.72L1303.31 894.305L1295.31 894.173ZM1364.92 792.829L1296.03 891.956L1302.6 896.522L1371.49 797.395L1364.92 792.829ZM1505.11 851.178C1504.93 862.472 1495.62 871.476 1484.33 871.289L1484.19 879.288C1499.91 879.548 1512.85 867.022 1513.11 851.311L1505.11 851.178ZM1485 830.391C1496.3 830.578 1505.3 839.885 1505.11 851.178L1513.11 851.311C1513.37 835.599 1500.85 822.652 1485.14 822.392L1485 830.391ZM1464.22 850.502C1464.4 839.208 1473.71 830.204 1485 830.391L1485.14 822.392C1469.42 822.132 1456.48 834.658 1456.22 850.37L1464.22 850.502ZM1484.33 871.289C1473.03 871.102 1464.03 861.796 1464.22 850.502L1456.22 850.37C1455.96 866.081 1468.48 879.028 1484.19 879.288L1484.33 871.289Z" fill="black" mask="url(#path-10-inside-3_188_86)"/>
<mask id="path-12-inside-4_188_86" fill="white">
<path fill-rule="evenodd" clip-rule="evenodd" d="M1973.08 783.861L2204.56 814.634L2259.14 914.389L2191.79 1420.98L1827 1372.48L1893.22 874.378L1973.08 783.861ZM2079.12 876.891C2092.5 878.671 2104.8 869.262 2106.58 855.875C2108.36 842.488 2098.95 830.194 2085.56 828.414C2072.18 826.635 2059.88 836.044 2058.1 849.431C2056.32 862.817 2065.73 875.112 2079.12 876.891Z"/>
</mask>
<path fill-rule="evenodd" clip-rule="evenodd" d="M1973.08 783.861L2204.56 814.634L2259.14 914.389L2191.79 1420.98L1827 1372.48L1893.22 874.378L1973.08 783.861ZM2079.12 876.891C2092.5 878.671 2104.8 869.262 2106.58 855.875C2108.36 842.488 2098.95 830.194 2085.56 828.414C2072.18 826.635 2059.88 836.044 2058.1 849.431C2056.32 862.817 2065.73 875.112 2079.12 876.891Z" fill="white"/>
<path d="M2204.56 814.634L2208.07 812.714L2207.1 810.936L2205.09 810.668L2204.56 814.634ZM1973.08 783.861L1973.61 779.896L1971.5 779.615L1970.08 781.215L1973.08 783.861ZM2259.14 914.389L2263.1 914.917L2263.27 913.618L2262.64 912.47L2259.14 914.389ZM2191.79 1420.98L2191.26 1424.94L2195.23 1425.47L2195.76 1421.5L2191.79 1420.98ZM1827 1372.48L1823.03 1371.95L1822.51 1375.92L1826.47 1376.45L1827 1372.48ZM1893.22 874.378L1890.22 871.732L1889.41 872.644L1889.25 873.851L1893.22 874.378ZM2205.09 810.668L1973.61 779.896L1972.56 787.826L2204.04 818.599L2205.09 810.668ZM2262.64 912.47L2208.07 812.714L2201.05 816.553L2255.63 916.309L2262.64 912.47ZM2195.76 1421.5L2263.1 914.917L2255.17 913.862L2187.83 1420.45L2195.76 1421.5ZM1826.47 1376.45L2191.26 1424.94L2192.32 1417.01L1827.53 1368.52L1826.47 1376.45ZM1889.25 873.851L1823.03 1371.95L1830.96 1373.01L1897.18 874.905L1889.25 873.851ZM1970.08 781.215L1890.22 871.732L1896.22 877.025L1976.08 786.508L1970.08 781.215ZM2102.61 855.348C2101.13 866.545 2090.84 874.415 2079.64 872.926L2078.59 880.857C2094.17 882.927 2108.47 871.979 2110.54 856.402L2102.61 855.348ZM2085.04 832.379C2096.23 833.868 2104.1 844.151 2102.61 855.348L2110.54 856.402C2112.61 840.826 2101.67 826.52 2086.09 824.449L2085.04 832.379ZM2062.07 849.958C2063.56 838.761 2073.84 830.891 2085.04 832.379L2086.09 824.449C2070.51 822.378 2056.21 833.327 2054.14 848.903L2062.07 849.958ZM2079.64 872.926C2068.45 871.438 2060.58 861.154 2062.07 849.958L2054.14 848.903C2052.07 864.48 2063.01 878.786 2078.59 880.857L2079.64 872.926Z" fill="black" mask="url(#path-12-inside-4_188_86)"/>
<path d="M2109 849.5C2100.17 847.167 2082.4 839.3 2082 826.5C2081.75 818.491 2089.84 809.543 2098.5 802.496M2113 792.5L2118.5 805L2098.5 802.496M2113 792.5C2109.07 794.746 2103.68 798.281 2098.5 802.496M2113 792.5C2108.33 780.833 2100.4 751.2 2106 726C2113 694.5 2135 676.5 2124 647.5" stroke="black" stroke-width="4"/>
<path d="M1004.2 515.2C1033 531.6 1039 554.4 1039 576.4C1039 616 1012.2 648 954.2 648H833V382.4H954.2C1012.2 382.4 1039 414.4 1039 454C1039 476 1033 498.8 1004.2 515.2ZM869 614.4H953.8C984.2 614.4 1003 600.4 1003 573.2C1003 546 984.2 532 953.8 532H869V614.4ZM869 498.4H953.8C984.2 498.4 1003 484.4 1003 457.2C1003 430 984.2 416 953.8 416H869V498.4Z" fill="black"/>
<path d="M1595 435.6L1473 648L1351 435.6V648H1315V382.4H1360.6L1473.8 580.8L1587 382.4H1631V648H1595V435.6Z" fill="black"/>
<path d="M2132 460.4C2132 502.8 2104.4 538.4 2043.2 538.4H2014.4L2139.2 648H2087.2L1962.8 538.4H1954V648H1918V382.4H2043.2C2104.4 382.4 2132 418 2132 460.4ZM2096 460.4C2096 431.2 2075.6 416 2043.2 416H1954V504.8H2043.2C2075.6 504.8 2096 489.6 2096 460.4Z" fill="black"/>
<path d="M498 891.5C502.833 896.167 515.8 903.5 529 895.5C537.427 890.393 535.162 876.728 530.298 864M521 845L504 857L530.298 864M521 845C523.953 849.882 527.543 856.79 530.298 864M521 845C501.5 833.167 462.8 797.6 464 750C465.2 702.4 443.167 661.5 432 647" stroke="black" stroke-width="4"/>
<path d="M427.5 652L439 658V650.5L427.5 652Z" stroke="black" stroke-width="4"/>
<path d="M908.5 917C914.833 917 928.3 912.3 931.5 893.5C933.597 881.182 923.931 873.057 913.5 868.309M898 863.5L892.5 871.5L913.5 868.309M898 863.5C902.31 864.247 908.011 865.81 913.5 868.309M898 863.5C873.833 830.833 829 741.3 843 644.5" stroke="black" stroke-width="4"/>
<path d="M1467 833.5C1473.83 837.667 1490.6 843.5 1503 833.5C1511.65 826.523 1505.07 811.513 1496.56 799M1485.5 785L1473 798L1496.56 799M1485.5 785C1488.82 788.627 1492.87 793.579 1496.56 799M1485.5 785C1480 732.333 1469.4 626.3 1471 623.5" stroke="black" stroke-width="4"/>
<path d="M1472.5 649.5L1478 635" stroke="black" stroke-width="4"/>
<path d="M1472 648.5L1467.5 634.5" stroke="black" stroke-width="4"/>
<path d="M346.857 1319.63L345.562 1325.25L327.477 1321.08L321.897 1345.27L339.982 1349.44L338.688 1355.06L297.279 1345.51L298.573 1339.89L316.658 1344.07L322.239 1319.87L304.153 1315.7L305.448 1310.09L346.857 1319.63ZM348.018 1295.52C348.795 1292.15 348.118 1289.1 345.906 1287.02L347.244 1281.22C352.334 1284.49 354.46 1290.37 353.007 1296.67C351.008 1305.34 343.18 1310.23 334.324 1308.19C325.718 1306.2 320.628 1298.66 322.627 1289.99C324.525 1281.76 332.425 1277.41 340.657 1279.3C341.343 1279.46 342.216 1279.66 342.998 1279.98L337.662 1303.11C342.483 1303.57 346.882 1300.44 348.018 1295.52ZM327.616 1291.14C326.48 1296.07 328.716 1300.33 333 1301.97L337.055 1284.38C332.469 1284.05 328.694 1286.46 327.616 1291.14ZM342.979 1243.6L341.613 1249.52C338.711 1250.43 336.457 1252.8 335.68 1256.17C334.386 1261.78 337.956 1266.81 343.631 1268.12C349.306 1269.43 354.716 1266.47 356.011 1260.86C356.787 1257.49 355.799 1254.37 353.587 1252.29L354.953 1246.36C360.029 1249.7 362.467 1255.65 361 1262.01C359.044 1270.49 351.062 1275.48 342.394 1273.48C333.725 1271.48 328.735 1263.5 330.691 1255.02C332.158 1248.66 336.955 1244.38 342.979 1243.6ZM339.854 1219.84C341.753 1211.61 349.83 1206.77 357.937 1208.64C366.045 1210.51 371.049 1218.43 369.064 1227.04C366.792 1236.89 358.331 1240.26 348.165 1237.92C335.319 1234.95 328.808 1230.43 330.006 1220.4L330.749 1214.33C331.099 1211.39 330.643 1209.38 328.56 1208.44L329.797 1203.07C333.654 1204.29 336.586 1207.53 335.872 1213.47L334.909 1221.07C334.137 1227.26 338.407 1229.82 342.015 1230.98C340.124 1228.64 338.689 1224.89 339.854 1219.84ZM364.075 1225.89C365.37 1220.27 362.064 1215.24 356.701 1214.01C351.213 1212.74 345.975 1215.8 344.68 1221.41C343.4 1226.96 346.783 1231.95 352.271 1233.21C357.634 1234.45 362.795 1231.44 364.075 1225.89ZM346.735 1185.45C348.605 1177.34 353.953 1172.66 361.125 1174.32L379.397 1178.53L378.16 1183.89L375.042 1183.17C376.957 1185.98 377.691 1189.63 376.67 1194.06C375.117 1200.79 370.862 1205 364.439 1203.52C357.517 1201.92 356.528 1195.39 358.052 1188.78L360.137 1179.74C355.398 1178.64 352.817 1181.86 351.724 1186.6C350.933 1190.03 351.577 1193.79 354.062 1195.54L352.681 1201.53C347.145 1198.48 345.211 1192.06 346.735 1185.45ZM366.686 1181.25L364.815 1180.81L362.715 1189.92C361.694 1194.35 362.558 1197.44 365.676 1198.16C368.794 1198.87 370.861 1196.46 371.81 1192.35C373.148 1186.55 370.989 1182.24 366.686 1181.25ZM353.51 1159.77L358.803 1136.82L387.49 1143.44L386.253 1148.8L362.306 1143.28L359.487 1155.5L366.908 1157.21C374.142 1158.88 383.305 1161.58 381.104 1171.13L380.687 1172.93L375.636 1171.77L375.895 1170.65C377.132 1165.28 370.598 1163.71 365.671 1162.58L353.51 1159.77ZM363.013 1114.86C364.883 1106.75 370.231 1102.08 377.402 1103.73L395.675 1107.94L394.438 1113.31L391.32 1112.59C393.234 1115.39 393.969 1119.04 392.948 1123.47C391.394 1130.21 387.14 1134.42 380.717 1132.93C373.794 1131.34 372.805 1124.8 374.33 1118.19L376.415 1109.15C371.675 1108.06 369.095 1111.27 368.002 1116.01C367.211 1119.44 367.855 1123.2 370.34 1124.96L368.959 1130.95C363.423 1127.89 361.489 1121.47 363.013 1114.86ZM382.963 1110.66L381.092 1110.23L378.993 1119.33C377.971 1123.76 378.835 1126.85 381.954 1127.57C385.072 1128.29 387.139 1125.88 388.088 1121.76C389.426 1115.96 387.266 1111.65 382.963 1110.66ZM374.246 1069.85L375.483 1064.49L404.17 1071.11L402.933 1076.47L390.835 1073.68L386.966 1090.45L399.065 1093.24L397.828 1098.61L369.141 1091.99L370.378 1086.63L382.227 1089.36L386.095 1072.59L374.246 1069.85ZM392.276 1029.84L390.91 1035.76C388.008 1036.67 385.753 1039.04 384.977 1042.41C383.682 1048.02 387.252 1053.04 392.927 1054.35C398.602 1055.66 404.013 1052.71 405.307 1047.09C406.084 1043.73 405.095 1040.61 402.883 1038.52L404.25 1032.6C409.325 1035.94 411.763 1041.88 410.296 1048.24C408.34 1056.73 400.359 1061.72 391.69 1059.72C383.022 1057.72 378.032 1049.74 379.988 1041.25C381.455 1034.89 386.251 1030.61 392.276 1029.84ZM415.637 1021.38L414.401 1026.74L385.713 1020.13L386.95 1014.77L407.78 1019.57L390.819 997.989L392.056 992.626L420.743 999.242L419.506 1004.6L398.677 999.802L415.637 1021.38ZM408.535 1374.12L403.67 1373L407.151 1357.91L412.015 1359.03L408.535 1374.12ZM441.985 1352.39L440.748 1357.76L399.339 1348.21L400.575 1342.84L403.694 1343.56C401.813 1340.89 401.059 1337.04 401.994 1332.99C404.166 1323.57 412.579 1320.13 420.499 1321.95C428.419 1323.78 434.474 1330.56 432.302 1339.98C431.368 1344.03 429.003 1347.17 426.144 1348.74L441.985 1352.39ZM414.876 1346.34C421.673 1347.9 426.12 1344 427.27 1339.02C428.55 1333.46 424.75 1328.58 419.262 1327.32C413.774 1326.05 408.22 1328.78 406.94 1334.33C405.789 1339.32 408.078 1344.77 414.876 1346.34ZM410.242 1297.22C412.227 1288.62 420.194 1283.69 428.862 1285.69C437.468 1287.67 442.535 1295.61 440.55 1304.21C438.566 1312.82 430.536 1317.73 421.93 1315.75C413.262 1313.75 408.257 1305.83 410.242 1297.22ZM435.561 1303.06C436.87 1297.39 433.238 1292.35 427.625 1291.05C421.95 1289.74 416.54 1292.7 415.231 1298.37C413.922 1304.05 417.492 1309.08 423.167 1310.38C428.78 1311.68 434.253 1308.74 435.561 1303.06ZM435.938 1255C438.37 1252.15 441.037 1251.98 443.469 1252.54C447.71 1253.51 450.526 1257.25 449.088 1263.49L445.076 1280.89L416.389 1274.27L420.344 1257.12C421.782 1250.89 425.888 1248.74 430.191 1249.74C432.561 1250.28 434.849 1251.47 435.938 1255ZM444.219 1262.96C444.838 1260.27 444.041 1258.32 441.609 1257.76C439.177 1257.2 437.604 1258.61 436.985 1261.29L434.339 1272.76L441.573 1274.43L444.219 1262.96ZM432.188 1260.44C432.806 1257.76 432.01 1255.81 429.578 1255.24C427.145 1254.68 425.572 1256.09 424.954 1258.78L422.365 1270L429.599 1271.67L432.188 1260.44ZM426.216 1227.96C428.085 1219.85 433.433 1215.17 440.605 1216.83L458.877 1221.04L457.641 1226.4L454.522 1225.68C456.437 1228.49 457.171 1232.14 456.15 1236.57C454.597 1243.3 450.343 1247.51 443.919 1246.03C436.997 1244.43 436.008 1237.9 437.532 1231.29L439.618 1222.25C434.878 1221.15 432.298 1224.37 431.205 1229.11C430.414 1232.54 431.057 1236.3 433.542 1238.05L432.162 1244.04C426.625 1240.99 424.691 1234.57 426.216 1227.96ZM446.166 1223.76L444.295 1223.32L442.195 1232.43C441.174 1236.86 442.038 1239.95 445.156 1240.67C448.274 1241.38 450.341 1238.97 451.291 1234.86C452.628 1229.06 450.469 1224.75 446.166 1223.76ZM437.449 1182.95L438.686 1177.58L467.373 1184.2L466.136 1189.56L454.037 1186.77L450.169 1203.55L462.267 1206.34L461.03 1211.7L432.343 1205.09L433.58 1199.72L445.429 1202.46L449.298 1185.68L437.449 1182.95ZM446.086 1145.49L447.323 1140.13L476.01 1146.75L474.773 1152.11L462.675 1149.32L458.806 1166.09L470.905 1168.88L469.668 1174.25L440.981 1167.63L442.218 1162.27L454.067 1165L457.935 1148.23L446.086 1145.49ZM451.454 1118.52C453.323 1110.41 458.671 1105.73 465.843 1107.39L484.115 1111.6L482.879 1116.96L479.76 1116.24C481.675 1119.05 482.409 1122.7 481.388 1127.13C479.835 1133.86 475.581 1138.07 469.157 1136.59C462.235 1134.99 461.246 1128.46 462.77 1121.85L464.856 1112.81C460.116 1111.71 457.536 1114.93 456.443 1119.67C455.652 1123.1 456.295 1126.86 458.78 1128.61L457.4 1134.6C451.863 1131.55 449.929 1125.13 451.454 1118.52ZM471.404 1114.32L469.533 1113.88L467.433 1122.99C466.412 1127.42 467.276 1130.51 470.394 1131.23C473.512 1131.94 475.579 1129.53 476.529 1125.42C477.866 1119.62 475.707 1115.31 471.404 1114.32ZM480.735 1082.4L480.217 1084.64L487.189 1098.27L485.406 1106L478.477 1092.19C476.65 1099.26 471.489 1101.42 466.562 1100.28C461.448 1099.1 457.797 1094.71 459.509 1087.29L462.888 1072.63L491.575 1079.25L490.339 1084.61L480.735 1082.4ZM466.391 1079.09L464.291 1088.2C463.5 1091.63 464.743 1094.21 467.799 1094.92C470.855 1095.62 473.104 1093.84 473.895 1090.41L475.995 1081.31L466.391 1079.09ZM499.029 1368.59C501.46 1365.73 504.127 1365.56 506.56 1366.12C510.8 1367.1 513.617 1370.83 512.178 1377.07L508.166 1394.47L479.479 1387.85L483.434 1370.7C484.872 1364.47 488.978 1362.33 493.281 1363.32C495.651 1363.87 497.939 1365.05 499.029 1368.59ZM507.309 1376.54C507.928 1373.86 507.131 1371.9 504.699 1371.34C502.267 1370.78 500.694 1372.19 500.075 1374.87L497.429 1386.34L504.663 1388.01L507.309 1376.54ZM495.278 1374.03C495.897 1371.34 495.1 1369.39 492.668 1368.83C490.236 1368.27 488.662 1369.68 488.044 1372.36L485.455 1383.58L492.689 1385.25L495.278 1374.03ZM514.942 1346.01C515.718 1342.64 515.041 1339.59 512.83 1337.51L514.167 1331.71C519.257 1334.98 521.383 1340.86 519.931 1347.16C517.932 1355.82 510.104 1360.72 501.248 1358.68C492.642 1356.69 487.551 1349.15 489.55 1340.48C491.449 1332.25 499.349 1327.89 507.581 1329.79C508.267 1329.95 509.14 1330.15 509.922 1330.46L504.586 1353.6C509.407 1354.06 513.805 1350.93 514.942 1346.01ZM494.539 1341.63C493.403 1346.56 495.639 1350.81 499.923 1352.46L503.979 1334.87C499.393 1334.54 495.618 1336.95 494.539 1341.63ZM538.051 1322.98L536.815 1328.34L495.405 1318.79L496.642 1313.43L499.76 1314.15C497.88 1311.48 497.126 1307.63 498.061 1303.57C500.232 1294.16 508.646 1290.71 516.566 1292.54C524.486 1294.36 530.541 1301.15 528.369 1310.56C527.434 1314.62 525.07 1317.75 522.211 1319.32L538.051 1322.98ZM510.943 1316.92C517.74 1318.49 522.186 1314.59 523.337 1309.6C524.617 1304.05 520.817 1299.17 515.329 1297.9C509.841 1296.64 504.287 1299.36 503.007 1304.91C501.856 1309.9 504.145 1315.35 510.943 1316.92ZM509.97 1255.63L521.438 1270.56L538.686 1262.12L537.176 1268.67L524.652 1274.85L533.192 1285.95L531.769 1292.12L520.129 1277.09L503.11 1285.38L504.649 1278.71L516.852 1272.79L508.489 1262.06L509.97 1255.63ZM516.55 1227.1L517.787 1221.74L546.474 1228.35L545.237 1233.72L533.138 1230.93L529.27 1247.7L541.368 1250.49L540.131 1255.86L511.444 1249.24L512.681 1243.88L524.53 1246.61L528.399 1229.83L516.55 1227.1ZM543.235 1198.54L542.717 1200.78L549.689 1214.41L547.906 1222.14L540.977 1208.33C539.15 1215.4 533.989 1217.56 529.062 1216.42C523.949 1215.24 520.297 1210.85 522.009 1203.43L525.389 1188.77L554.076 1195.39L552.839 1200.75L543.235 1198.54ZM528.891 1195.23L526.792 1204.34C526.001 1207.77 527.243 1210.35 530.299 1211.06C533.355 1211.76 535.605 1209.98 536.396 1206.55L538.495 1197.45L528.891 1195.23ZM550.847 1165.53L550.329 1167.78L557.301 1181.4L555.518 1189.14L548.589 1175.32C546.763 1182.39 541.601 1184.55 536.675 1183.41C531.561 1182.23 527.91 1177.84 529.621 1170.42L533.001 1155.77L561.688 1162.38L560.451 1167.74L550.847 1165.53ZM536.504 1162.22L534.404 1171.33C533.613 1174.76 534.856 1177.34 537.911 1178.05C540.967 1178.75 543.217 1176.97 544.008 1173.54L546.107 1164.44L536.504 1162.22ZM547.553 1135.1L538.261 1132.96L539.498 1127.59L548.291 1129.62C552.033 1130.48 553.865 1128.8 555.102 1123.44C555.648 1121.07 556.013 1118.07 556.247 1114.77L543.151 1111.75L544.388 1106.39L573.075 1113L571.838 1118.37L561.236 1115.92C561.222 1117.69 560.623 1122.28 560.134 1124.4C558.164 1132.95 554.039 1136.59 547.553 1135.1ZM548.518 1084.78C550.387 1076.67 555.735 1071.99 562.907 1073.65L581.179 1077.86L579.943 1083.22L576.824 1082.5C578.739 1085.31 579.473 1088.96 578.452 1093.39C576.899 1100.12 572.645 1104.33 566.221 1102.85C559.299 1101.25 558.31 1094.72 559.834 1088.11L561.92 1079.07C557.18 1077.97 554.6 1081.19 553.507 1085.93C552.716 1089.36 553.359 1093.12 555.844 1094.87L554.464 1100.86C548.927 1097.81 546.993 1091.39 548.518 1084.78ZM568.468 1080.58L566.597 1080.15L564.497 1089.25C563.476 1093.68 564.34 1096.77 567.458 1097.49C570.576 1098.21 572.643 1095.79 573.593 1091.68C574.93 1085.88 572.771 1081.57 568.468 1080.58ZM569.143 1037.21L567.777 1043.13C564.875 1044.04 562.621 1046.41 561.844 1049.78C560.55 1055.39 564.119 1060.41 569.794 1061.72C575.469 1063.03 580.88 1060.08 582.174 1054.46C582.951 1051.1 581.962 1047.98 579.751 1045.89L581.117 1039.97C586.193 1043.31 588.63 1049.25 587.163 1055.61C585.207 1064.1 577.226 1069.09 568.558 1067.09C559.889 1065.09 554.899 1057.11 556.855 1048.62C558.322 1042.26 563.118 1037.98 569.143 1037.21ZM566.457 1032.33L561.718 1031.24L568.074 1003.68L572.814 1004.77L570.254 1015.87L594.202 1021.39L592.965 1026.76L569.017 1021.23L566.457 1032.33ZM582.536 984.258C584.247 976.837 589.514 974.505 594.628 975.684C599.804 976.878 603.455 981.266 601.744 988.688L598.206 1004.03L569.519 997.413L570.755 992.05L580.235 994.236L582.536 984.258ZM596.961 987.782C597.752 984.352 596.509 981.766 593.391 981.047C590.273 980.328 588.023 982.108 587.232 985.538L584.974 995.329L594.703 997.573L596.961 987.782Z" fill="black"/>
<path d="M1012.48 996.588C1014.59 1009.93 1005.9 1021.79 992.344 1023.93C978.792 1026.06 966.876 1017.46 964.772 1004.11C962.668 990.765 971.357 978.907 984.91 976.771C998.463 974.634 1010.38 983.243 1012.48 996.588ZM1006.67 997.504C1005.12 987.616 996.263 981.359 985.891 982.994C975.519 984.629 969.021 993.307 970.58 1003.19C972.139 1013.08 980.991 1019.34 991.363 1017.7C1001.74 1016.07 1008.23 1007.39 1006.67 997.504ZM996.654 1027.89L1001.91 1027.06L1006.73 1057.62L1001.47 1058.45L999.532 1046.14L972.979 1050.33L972.042 1044.38L998.594 1040.2L996.654 1027.89ZM1003.13 1095.01L1002.09 1088.44C1004.66 1086.34 1005.98 1083.01 1005.39 1079.28C1004.41 1073.05 998.736 1069.41 992.443 1070.4C986.151 1071.4 981.87 1076.61 982.851 1082.83C983.44 1086.56 985.718 1089.32 988.814 1090.54L989.85 1097.1C983.336 1095.79 978.432 1090.75 977.32 1083.7C975.837 1074.3 981.895 1065.97 991.506 1064.46C1001.12 1062.94 1009.44 1069 1010.92 1078.4C1012.04 1085.46 1008.92 1091.76 1003.13 1095.01ZM983.951 1117.22L1013.1 1098.03L1014.15 1104.74L991.803 1119.38L1017.58 1126.45L1018.58 1132.81L982.646 1122.88C972.418 1120.03 969.452 1119.65 968.264 1112.11L967.784 1109.07L973.039 1108.24L973.344 1110.18C973.922 1113.84 975.454 1115.02 980.701 1116.39L983.951 1117.22ZM1013.53 1134.92L1018.78 1134.09L1023.6 1164.65L1018.35 1165.48L1016.4 1153.17L989.853 1157.36L988.915 1151.41L1015.47 1147.22L1013.53 1134.92ZM1020 1202.04L1018.96 1195.47C1021.54 1193.36 1022.85 1190.04 1022.27 1186.3C1021.29 1180.08 1015.61 1176.44 1009.32 1177.43C1003.02 1178.42 998.744 1183.63 999.725 1189.86C1000.31 1193.59 1002.59 1196.35 1005.69 1197.56L1006.72 1204.13C1000.21 1202.82 995.305 1197.78 994.193 1190.73C992.71 1181.33 998.768 1173 1008.38 1171.49C1017.99 1169.97 1026.32 1176.03 1027.8 1185.43C1028.91 1192.48 1025.79 1198.79 1020 1202.04ZM1024.72 1205.88L1029.97 1205.06L1034.79 1235.62L1029.53 1236.45L1027.59 1224.14L1001.04 1228.33L1000.1 1222.38L1026.66 1218.19L1024.72 1205.88ZM1023.93 1270.1C1022.63 1273.99 1019.99 1275.26 1017.29 1275.68C1012.59 1276.42 1008.21 1273.78 1007.12 1266.87L1004.08 1247.58L1035.88 1242.56L1038.88 1261.58C1039.97 1268.49 1036.68 1272.34 1031.91 1273.09C1029.28 1273.51 1026.48 1273.24 1023.93 1270.1ZM1012.27 1265.42C1012.74 1268.39 1014.35 1270.05 1017.05 1269.63C1019.74 1269.2 1020.76 1267.13 1020.3 1264.15L1018.29 1251.43L1010.27 1252.69L1012.27 1265.42ZM1025.51 1263.05C1025.98 1266.02 1027.58 1267.68 1030.28 1267.26C1032.98 1266.83 1034 1264.76 1033.53 1261.78L1031.57 1249.34L1023.54 1250.6L1025.51 1263.05ZM1011.07 1291.95L1010.13 1286L1041.94 1280.98L1042.88 1286.93L1019.78 1290.57L1045.81 1305.53L1046.75 1311.48L1014.94 1316.49L1014 1310.55L1037.1 1306.9L1011.07 1291.95ZM1023.56 1341.04C1024.15 1344.77 1026.08 1347.59 1029.18 1348.8L1030.19 1355.23C1023.69 1353.99 1019.13 1348.9 1018.03 1341.91C1016.51 1332.3 1022.45 1324.14 1032.27 1322.59C1041.81 1321.08 1050.06 1326.66 1051.58 1336.27C1053.02 1345.4 1046.78 1353.04 1037.65 1354.48C1036.89 1354.6 1035.93 1354.75 1035 1354.76L1030.96 1329.1C1025.88 1330.61 1022.7 1335.58 1023.56 1341.04ZM1046.05 1337.14C1045.18 1331.68 1041.18 1328.27 1036.16 1328.35L1039.23 1347.85C1044.02 1346.32 1046.86 1342.33 1046.05 1337.14ZM899.313 992.745L900.251 998.692L886.353 1000.88L902.66 1013.97L903.914 1021.92L885.23 1006.8L872.106 1026.94L870.853 1018.99L881.512 1001.65L868.444 1003.71L867.506 997.76L899.313 992.745ZM907.984 1041.9C909.489 1051.44 903.42 1059.7 893.809 1061.21C884.267 1062.72 875.884 1056.74 874.379 1047.2C872.875 1037.66 879.012 1029.39 888.555 1027.89C898.166 1026.37 906.48 1032.36 907.984 1041.9ZM879.911 1046.33C880.903 1052.62 886.648 1056.25 892.871 1055.27C899.164 1054.28 903.445 1049.07 902.453 1042.77C901.461 1036.48 895.784 1032.84 889.492 1033.83C883.269 1034.81 878.919 1040.04 879.911 1046.33ZM906.351 1102.11L882.386 1092.14L902.041 1075.23L880.26 1078.66L879.323 1072.71L911.13 1067.7L912.176 1074.34L893.391 1090.48L916.221 1099.99L917.245 1106.49L885.438 1111.5L884.501 1105.56L906.351 1102.11ZM918.986 1117.53L923.707 1147.47L891.899 1152.49L890.962 1146.54L917.514 1142.35L914.669 1124.31L888.117 1128.49L887.179 1122.55L918.986 1117.53ZM900.52 1177.05C901.108 1180.78 903.04 1183.6 906.137 1184.81L907.15 1191.24C900.647 1190 896.089 1184.9 894.988 1177.92C893.473 1168.31 899.414 1160.14 909.232 1158.6C918.774 1157.09 927.023 1162.67 928.538 1172.28C929.977 1181.4 923.742 1189.05 914.614 1190.49C913.854 1190.61 912.886 1190.76 911.965 1190.76L907.921 1165.11C902.844 1166.62 899.658 1171.59 900.52 1177.05ZM923.007 1173.15C922.145 1167.69 918.136 1164.28 913.118 1164.36L916.192 1183.86C920.981 1182.33 923.824 1178.33 923.007 1173.15ZM935.333 1221.22L936.27 1227.17L904.463 1232.18L903.526 1226.23L916.94 1224.12L914.008 1205.52L900.593 1207.63L899.656 1201.69L931.463 1196.67L932.401 1202.62L919.263 1204.69L922.195 1223.29L935.333 1221.22ZM933.399 1269.19L932.364 1262.62C934.937 1260.51 936.255 1257.19 935.666 1253.45C934.685 1247.23 929.009 1243.59 922.717 1244.58C916.425 1245.57 912.144 1250.78 913.125 1257C913.714 1260.74 915.991 1263.5 919.088 1264.71L920.123 1271.28C913.609 1269.97 908.705 1264.93 907.593 1257.88C906.111 1248.47 912.168 1240.15 921.779 1238.63C931.391 1237.12 939.716 1243.18 941.198 1252.58C942.31 1259.63 939.194 1265.93 933.399 1269.19ZM946.929 1288.93C948.347 1297.92 944.833 1304.85 936.881 1306.11L916.622 1309.3L915.684 1303.35L919.141 1302.81C916.052 1300.75 913.815 1297.34 913.041 1292.43C911.864 1284.97 914.46 1278.96 921.582 1277.84C929.257 1276.63 932.931 1282.85 934.087 1290.18L935.667 1300.2C940.922 1299.38 942.226 1295.06 941.398 1289.81C940.798 1286 938.608 1282.45 935.37 1281.68L934.323 1275.05C941.186 1275.88 945.774 1281.6 946.929 1288.93ZM928.407 1301.35L930.481 1301.02L928.89 1290.93C928.116 1286.02 925.977 1283.24 922.519 1283.78C919.062 1284.33 917.951 1287.62 918.671 1292.18C919.685 1298.61 923.636 1302.1 928.407 1301.35ZM915.079 1356.15L914.142 1350.21L922.854 1348.83L918.254 1319.65L950.061 1314.64L950.998 1320.59L924.446 1324.77L927.291 1342.82L953.844 1338.63L954.781 1344.58L928.229 1348.77L929.047 1353.95L915.079 1356.15ZM926.036 1369.02L925.099 1363.07L956.906 1358.06L957.843 1364L934.749 1367.65L960.776 1382.6L961.713 1388.55L929.906 1393.57L928.969 1387.62L952.063 1383.98L926.036 1369.02ZM932.583 1410.55L931.646 1404.6L963.453 1399.59L964.39 1405.53L941.296 1409.17L967.323 1424.13L968.26 1430.08L936.453 1435.09L935.516 1429.15L958.61 1425.51L932.583 1410.55Z" fill="black"/>
<path d="M1390.8 1276.33C1390.71 1287.77 1399.52 1296.48 1411.52 1296.57C1423.52 1296.67 1432.47 1288.1 1432.56 1276.66C1432.62 1269.94 1429.7 1264.96 1425.16 1261.64L1425.23 1253.48C1433.67 1257.79 1439.37 1265.91 1439.28 1276.71C1439.16 1292.15 1427.15 1303.9 1411.47 1303.77C1395.79 1303.65 1383.96 1291.71 1384.08 1276.27C1384.17 1265.48 1389.99 1257.44 1398.51 1253.27L1398.44 1261.43C1393.86 1264.67 1390.86 1269.61 1390.8 1276.33ZM1401.73 1240.11L1401.97 1210.67L1438.76 1210.96L1438.71 1217.84L1407.99 1217.6L1407.87 1233.27L1417.39 1233.35C1426.67 1233.42 1438.58 1234.24 1438.48 1246.48L1438.46 1248.8L1431.98 1248.75L1432 1247.31C1432.05 1240.43 1423.65 1240.28 1417.33 1240.23L1401.73 1240.11ZM1438.92 1190.87L1438.87 1197.75L1402.07 1197.46L1402.13 1190.58L1428.84 1190.79L1402.3 1169.06L1402.35 1162.18L1439.15 1162.47L1439.1 1169.35L1412.38 1169.14L1438.92 1190.87ZM1439.67 1096.91L1439.25 1149.7L1402.45 1149.41L1402.51 1142.53L1433.23 1142.78L1433.35 1126.7L1402.63 1126.45L1402.69 1119.57L1433.41 1119.82L1433.54 1103.74L1402.82 1103.49L1402.87 1096.61L1439.67 1096.91ZM1402.97 1083.79L1403.03 1076.91L1419.11 1077.04L1403.17 1059.23L1403.24 1050.03L1421.48 1070.58L1440.04 1050.32L1439.97 1059.52L1424.71 1077.08L1439.83 1077.2L1439.77 1084.08L1402.97 1083.79ZM1402.39 1026.75C1402.47 1015.71 1410.86 1007.53 1421.98 1007.62C1433.02 1007.71 1441.35 1016.02 1441.27 1027.06C1441.18 1038.09 1432.71 1046.27 1421.67 1046.18C1410.55 1046.09 1402.3 1037.79 1402.39 1026.75ZM1434.87 1027C1434.92 1019.72 1429.12 1014.56 1421.92 1014.5C1414.64 1014.44 1408.84 1019.52 1408.79 1026.8C1408.73 1034.08 1414.45 1039.24 1421.73 1039.3C1428.93 1039.36 1434.81 1034.28 1434.87 1027ZM1415.48 959.166L1440.64 974.886L1415.32 990.286L1440.52 990.486L1440.46 997.366L1403.66 997.073L1403.72 989.394L1427.92 974.705L1403.96 959.714L1404.02 952.195L1440.82 952.487L1440.76 959.367L1415.48 959.166ZM1547.46 1249.25L1547.05 1302.05L1510.25 1301.76L1510.3 1294.88L1541.02 1295.12L1541.15 1279.04L1510.43 1278.8L1510.48 1271.92L1541.2 1272.16L1541.33 1256.08L1510.61 1255.84L1510.67 1248.96L1547.46 1249.25ZM1547.62 1229.55L1547.57 1236.43L1510.77 1236.13L1510.82 1229.25L1537.54 1229.47L1510.99 1207.74L1511.05 1200.86L1547.85 1201.15L1547.79 1208.03L1521.07 1207.82L1547.62 1229.55ZM1564.32 1181.63L1564.27 1188.51L1511.15 1188.09L1511.2 1181.21L1515.2 1181.24C1512.19 1178.5 1510.22 1174 1510.26 1168.8C1510.36 1156.72 1519.69 1150.24 1529.85 1150.32C1540.01 1150.4 1549.24 1157.03 1549.14 1169.11C1549.1 1174.31 1547.06 1178.77 1544 1181.47L1564.32 1181.63ZM1529.6 1181.6C1538.32 1181.66 1542.69 1175.7 1542.74 1169.3C1542.8 1162.18 1536.83 1157.25 1529.79 1157.2C1522.75 1157.14 1516.72 1161.97 1516.66 1169.09C1516.61 1175.49 1520.88 1181.53 1529.6 1181.6ZM1510.63 1122.92C1510.71 1111.88 1519.1 1103.71 1530.22 1103.8C1541.26 1103.88 1549.59 1112.19 1549.51 1123.23C1549.42 1134.27 1540.95 1142.44 1529.91 1142.36C1518.79 1142.27 1510.54 1133.96 1510.63 1122.92ZM1543.11 1123.18C1543.16 1115.9 1537.36 1110.73 1530.16 1110.68C1522.88 1110.62 1517.08 1115.69 1517.03 1122.97C1516.97 1130.25 1522.69 1135.42 1529.97 1135.48C1537.17 1135.53 1543.05 1130.46 1543.11 1123.18ZM1511.9 1093.25L1511.96 1086.37L1528.04 1086.5L1512.1 1068.69L1512.17 1059.49L1530.41 1080.03L1548.97 1059.78L1548.9 1068.98L1533.64 1086.54L1548.76 1086.66L1548.7 1093.54L1511.9 1093.25ZM1511.3 1037.58C1511.39 1027.18 1516.64 1020.03 1525.84 1020.1L1549.28 1020.29L1549.23 1027.17L1545.23 1027.13C1548.33 1030.04 1550.21 1034.29 1550.17 1039.97C1550.1 1048.61 1546.05 1054.9 1537.81 1054.84C1528.93 1054.76 1525.95 1047.06 1526.02 1038.58L1526.11 1026.98C1520.03 1026.93 1517.75 1031.56 1517.7 1037.64C1517.67 1042.04 1519.47 1046.45 1522.98 1047.92L1522.92 1055.6C1515.34 1053.38 1511.24 1046.06 1511.3 1037.58ZM1534.51 1027.05L1532.11 1027.03L1532.02 1038.71C1531.97 1044.39 1533.86 1047.92 1537.86 1047.96C1541.86 1047.99 1543.73 1044.48 1543.77 1039.2C1543.83 1031.76 1540.03 1027.09 1534.51 1027.05ZM1537.24 985.572L1537.21 988.452L1549.42 1003.19L1549.34 1013.11L1537.14 998.131C1536.83 1007.25 1531.11 1011.28 1524.79 1011.23C1518.23 1011.18 1512.59 1006.82 1512.66 997.297L1512.81 978.498L1549.61 978.79L1549.56 985.67L1537.24 985.572ZM1518.84 985.426L1518.75 997.105C1518.71 1001.51 1520.93 1004.32 1524.85 1004.35C1528.77 1004.39 1531.03 1001.6 1531.07 997.203L1531.16 985.523L1518.84 985.426Z" fill="black"/>
<path d="M1946.41 1294.57C1945.12 1305.07 1952.3 1314 1963.32 1315.36C1974.33 1316.71 1983.46 1309.77 1984.75 1299.27C1985.5 1293.1 1983.34 1288.21 1979.53 1284.69L1980.44 1277.2C1987.75 1282.04 1992.13 1290.11 1990.92 1300.02C1989.18 1314.2 1976.9 1323.73 1962.51 1321.97C1948.11 1320.2 1938.5 1307.99 1940.24 1293.81C1941.45 1283.9 1947.65 1277.13 1955.91 1274.19L1954.99 1281.68C1950.44 1284.18 1947.16 1288.4 1946.41 1294.57ZM1959.86 1265.74L1960.63 1259.42L1975.39 1261.23L1962.62 1243.19L1963.65 1234.74L1978.25 1255.54L1997.44 1238.88L1996.41 1247.33L1980.53 1261.86L1994.42 1263.56L1993.64 1269.88L1959.86 1265.74ZM1965.32 1213.25C1966.56 1203.12 1975.13 1196.49 1985.34 1197.74C1995.47 1198.98 2002.26 1207.49 2001.01 1217.63C1999.77 1227.76 1991.13 1234.38 1981 1233.14C1970.79 1231.89 1964.08 1223.39 1965.32 1213.25ZM1995.14 1216.91C1995.96 1210.22 1991.17 1204.87 1984.56 1204.06C1977.88 1203.24 1972.01 1207.29 1971.19 1213.97C1970.37 1220.66 1975.09 1226.01 1981.77 1226.83C1988.38 1227.64 1994.32 1223.59 1995.14 1216.91ZM2009.34 1141.78L2003.4 1190.26L1969.61 1186.12L1970.39 1179.8L1998.59 1183.26L2000.4 1168.49L1972.2 1165.04L1972.97 1158.72L2001.18 1162.18L2002.98 1147.41L1974.78 1143.96L1975.55 1137.64L2009.34 1141.78ZM2007.72 1114.27C2008.2 1110.31 2007.06 1106.89 2004.26 1104.75L2005.1 1097.92C2011.35 1101.07 2014.5 1107.57 2013.59 1114.99C2012.34 1125.2 2003.93 1131.78 1993.5 1130.5C1983.37 1129.26 1976.6 1121.19 1977.85 1110.99C1979.04 1101.29 1987.6 1095.33 1997.29 1096.52C1998.1 1096.62 1999.13 1096.74 2000.07 1097.01L1996.73 1124.26C2002.33 1124.2 2007.01 1120.07 2007.72 1114.27ZM1983.73 1111.71C1983.02 1117.51 1986.1 1122.14 1991.23 1123.51L1993.77 1102.8C1988.45 1102.96 1984.4 1106.2 1983.73 1111.71ZM1985.16 1059.26L1985.93 1052.95L2019.72 1057.09L2018.95 1063.4L2004.7 1061.66L2002.28 1081.42L2016.52 1083.16L2015.75 1089.48L1981.96 1085.34L1982.74 1079.02L1996.69 1080.73L1999.11 1060.97L1985.16 1059.26ZM1990.56 1015.15L1991.34 1008.83L2025.13 1012.97L2024.35 1019.29L2010.1 1017.54L2007.68 1037.3L2021.93 1039.05L2021.16 1045.37L1987.37 1041.23L1988.14 1034.91L2002.1 1036.62L2004.52 1016.86L1990.56 1015.15ZM1997.07 962.076L1997.84 955.759L2031.63 959.9L2030.86 966.217L1997.07 962.076ZM2005.97 981.88C2007.05 973.14 2012.82 969.822 2018.84 970.56C2024.94 971.307 2029.67 975.912 2028.6 984.653L2026.56 1001.25L1992.78 997.112L1993.55 990.795L2004.71 992.164L2005.97 981.88ZM2022.99 984.189C2023.48 980.149 2021.74 977.327 2018.07 976.876C2014.4 976.426 2012.02 978.745 2011.53 982.785L2010.3 992.848L2021.75 994.252L2022.99 984.189ZM2033.84 941.857L2033.07 948.173L1999.28 944.033L2000.05 937.716L2024.59 940.722L2002.48 917.958L2003.25 911.641L2037.04 915.782L2036.26 922.098L2011.73 919.092L2033.84 941.857ZM1990.76 926.586C1991.27 922.4 1988.77 919.037 1985.03 917.981L1985.71 912.399C1992.47 913.824 1997.14 920.137 1996.27 927.261C1995.38 934.46 1989.34 939.385 1982.44 939.135L1983.11 933.626C1987 933.507 1990.24 930.846 1990.76 926.586ZM2053.67 1330.53L2054.44 1324.21L2069.21 1326.02L2056.43 1307.98L2057.47 1299.53L2072.07 1320.33L2091.26 1303.67L2090.22 1312.12L2074.35 1326.65L2088.23 1328.35L2087.46 1334.67L2053.67 1330.53ZM2059.13 1278.04C2060.38 1267.91 2068.94 1261.28 2079.15 1262.53C2089.29 1263.77 2096.07 1272.28 2094.83 1282.42C2093.59 1292.56 2084.95 1299.18 2074.81 1297.93C2064.6 1296.68 2057.89 1288.18 2059.13 1278.04ZM2088.95 1281.7C2089.77 1275.02 2084.99 1269.66 2078.38 1268.85C2071.69 1268.03 2065.83 1272.08 2065.01 1278.76C2064.19 1285.45 2068.9 1290.8 2075.59 1291.62C2082.2 1292.43 2088.14 1288.38 2088.95 1281.7ZM2066.62 1224.83L2067.4 1218.52L2101.18 1222.66L2100.41 1228.98L2086.16 1227.23L2083.74 1246.99L2097.99 1248.73L2097.22 1255.05L2063.43 1250.91L2064.2 1244.59L2078.16 1246.3L2080.58 1226.54L2066.62 1224.83ZM2099.55 1195.2C2100.04 1191.24 2098.89 1187.82 2096.1 1185.68L2096.94 1178.85C2103.18 1182 2106.34 1188.5 2105.43 1195.92C2104.18 1206.13 2095.77 1212.71 2085.34 1211.43C2075.2 1210.19 2068.44 1202.13 2069.69 1191.92C2070.88 1182.22 2079.44 1176.26 2089.13 1177.45C2089.94 1177.55 2090.97 1177.67 2091.9 1177.94L2088.56 1205.19C2094.16 1205.13 2098.84 1201.01 2099.55 1195.2ZM2075.56 1192.64C2074.85 1198.44 2077.94 1203.07 2083.06 1204.44L2085.6 1183.73C2080.29 1183.9 2076.24 1187.13 2075.56 1192.64ZM2121.42 1134.23L2120.64 1140.55L2111.39 1139.41L2107.59 1170.41L2073.8 1166.27L2074.57 1159.95L2102.78 1163.41L2105.13 1144.24L2076.92 1140.78L2077.7 1134.47L2105.9 1137.92L2106.58 1132.41L2121.42 1134.23Z" fill="black"/>
<line y1="2" x2="2480" y2="2" stroke="black" stroke-width="4" stroke-dasharray="8 8"/>
</svg>
