<svg width="2480" height="1750" viewBox="0 0 2480 1750" fill="none" xmlns="http://www.w3.org/2000/svg">
<rect width="2480" height="1750" fill="#D9D9D9"/>
<rect x="323" y="358" width="902" height="1233" fill="white"/>
<path fill-rule="evenodd" clip-rule="evenodd" d="M752.507 1660.83H1246.55C1258.61 1660.55 1282.57 1653.76 1281.89 1628.84C1282.57 1629.52 1282.17 784.686 1281.89 362.186C1281.89 351.245 1274.99 329.363 1247.39 329.363C1247.39 330.036 1111.04 329.643 1042.87 329.363V311.688C1042.87 303.609 1032.21 300.466 1026.88 299.905H834.145V262.032C834.145 228.936 787.87 226.046 775.635 225.282C773.869 225.172 772.812 225.106 772.706 225C721.534 225 710.425 249.688 711.267 262.032V299.905H521.057C508.265 299.905 502.822 307.761 501.7 311.688V329.363H293.816C284.558 329.363 266.043 334.749 266.043 356.295C267.389 356.295 266.604 1204.66 266.043 1628.84C265.481 1639.51 270.251 1660.83 293.816 1660.83C294.49 1661.5 599.89 1661.11 752.507 1660.83ZM325.799 379.86V1574.98H1217.09V379.86H1043.71V394.167C1043.15 400.901 1039.17 414.367 1027.72 414.367H521.899C515.166 414.086 501.7 409.485 501.7 393.326V379.86H325.799Z" fill="white"/>
<path d="M1246.55 1660.83V1662.83H1246.57L1246.59 1662.83L1246.55 1660.83ZM752.507 1660.83V1658.83H752.503L752.507 1660.83ZM1281.89 1628.84L1283.31 1627.43L1279.76 1623.88L1279.89 1628.9L1281.89 1628.84ZM1281.89 362.186H1279.89V362.188L1281.89 362.186ZM1247.39 329.363V327.363H1245.39V329.363H1247.39ZM1042.87 329.363H1040.87V331.354L1042.86 331.363L1042.87 329.363ZM1026.88 299.905L1027.09 297.916L1026.98 297.905H1026.88V299.905ZM834.145 299.905H832.145V301.905H834.145V299.905ZM775.635 225.282L775.51 227.279L775.635 225.282ZM772.706 225L774.12 223.586L773.534 223H772.706V225ZM711.267 262.032H713.267V261.964L713.262 261.896L711.267 262.032ZM711.267 299.905V301.905H713.267V299.905H711.267ZM501.7 311.688L499.777 311.139L499.7 311.408V311.688H501.7ZM501.7 329.363V331.363H503.7V329.363H501.7ZM266.043 356.295H264.043V358.295H266.043V356.295ZM266.043 1628.84L268.04 1628.95L268.042 1628.9L268.043 1628.85L266.043 1628.84ZM293.816 1660.83L295.231 1659.41L294.645 1658.83H293.816V1660.83ZM325.799 1574.98H323.799V1576.98H325.799V1574.98ZM325.799 379.86V377.86H323.799V379.86H325.799ZM1217.09 1574.98V1576.98H1219.09V1574.98H1217.09ZM1217.09 379.86H1219.09V377.86H1217.09V379.86ZM1043.71 379.86V377.86H1041.71V379.86H1043.71ZM1043.71 394.167L1045.7 394.334L1045.71 394.251V394.167H1043.71ZM521.899 414.367L521.816 416.365L521.857 416.367H521.899V414.367ZM501.7 379.86H503.7V377.86H501.7V379.86ZM1246.55 1658.83H752.507V1662.83H1246.55V1658.83ZM1279.89 1628.9C1280.21 1640.57 1274.82 1647.88 1267.9 1652.4C1260.88 1656.99 1252.27 1658.69 1246.5 1658.83L1246.59 1662.83C1252.89 1662.68 1262.29 1660.85 1270.09 1655.75C1278 1650.57 1284.25 1642.03 1283.89 1628.79L1279.89 1628.9ZM1279.89 362.188C1280.03 573.437 1280.2 890.27 1280.25 1154.21C1280.28 1286.17 1280.27 1404.92 1280.22 1490.63C1280.19 1533.48 1280.15 1568.08 1280.1 1591.94C1280.07 1603.87 1280.04 1613.11 1280.01 1619.36C1279.99 1622.49 1279.97 1624.86 1279.95 1626.45C1279.94 1627.24 1279.93 1627.83 1279.93 1628.21C1279.92 1628.41 1279.92 1628.53 1279.91 1628.6C1279.91 1628.64 1279.91 1628.63 1279.91 1628.59C1279.92 1628.56 1279.94 1628.43 1279.96 1628.34C1280.07 1628.02 1281.71 1626.85 1283.31 1627.43L1280.48 1630.26C1282.08 1630.84 1283.72 1629.67 1283.84 1629.33C1283.86 1629.24 1283.88 1629.09 1283.89 1629.04C1283.9 1628.95 1283.9 1628.87 1283.91 1628.81C1283.91 1628.69 1283.92 1628.51 1283.92 1628.31C1283.93 1627.9 1283.94 1627.29 1283.95 1626.49C1283.97 1624.89 1283.99 1622.51 1284.01 1619.38C1284.04 1613.13 1284.07 1603.88 1284.1 1591.94C1284.15 1568.08 1284.19 1533.48 1284.22 1490.63C1284.27 1404.92 1284.28 1286.17 1284.25 1154.2C1284.2 890.268 1284.03 573.435 1283.89 362.185L1279.89 362.188ZM1247.39 331.363C1260.58 331.363 1268.61 336.552 1273.4 342.878C1278.26 349.301 1279.89 357.057 1279.89 362.186H1283.89C1283.89 356.375 1282.08 347.719 1276.59 340.464C1271.02 333.114 1261.8 327.363 1247.39 327.363V331.363ZM1042.86 331.363C1076.95 331.503 1128.08 331.671 1170.69 331.72C1192 331.745 1211.17 331.74 1225.03 331.686C1231.95 331.659 1237.55 331.62 1241.42 331.567C1243.36 331.541 1244.87 331.51 1245.91 331.475C1246.42 331.458 1246.84 331.439 1247.14 331.417C1247.28 331.407 1247.44 331.393 1247.59 331.371C1247.65 331.362 1247.79 331.339 1247.95 331.288C1248.02 331.268 1248.22 331.204 1248.44 331.066C1248.54 331.004 1249.39 330.482 1249.39 329.363H1245.39C1245.39 328.248 1246.23 327.731 1246.32 327.675C1246.53 327.542 1246.72 327.483 1246.77 327.468C1246.85 327.444 1246.9 327.432 1246.93 327.426C1246.96 327.42 1246.98 327.417 1246.99 327.416C1247 327.414 1246.97 327.419 1246.85 327.428C1246.63 327.444 1246.27 327.461 1245.77 327.478C1244.78 327.511 1243.3 327.541 1241.37 327.568C1237.52 327.621 1231.93 327.659 1225.01 327.686C1211.17 327.74 1192 327.745 1170.7 327.72C1128.09 327.671 1076.96 327.503 1042.88 327.363L1042.86 331.363ZM1040.87 311.688V329.363H1044.87V311.688H1040.87ZM1026.67 301.894C1029.15 302.155 1032.87 303.026 1035.9 304.722C1038.93 306.424 1040.87 308.691 1040.87 311.688H1044.87C1044.87 306.605 1041.47 303.262 1037.85 301.232C1034.22 299.198 1029.94 298.216 1027.09 297.916L1026.67 301.894ZM834.145 301.905H1026.88V297.905H834.145V301.905ZM832.145 262.032V299.905H836.145V262.032H832.145ZM775.51 227.279C781.642 227.661 795.988 228.568 808.771 233.403C821.549 238.237 832.145 246.716 832.145 262.032H836.145C836.145 244.251 823.604 234.738 810.186 229.662C796.772 224.588 781.863 223.667 775.76 223.286L775.51 227.279ZM771.292 226.414C771.544 226.667 771.803 226.792 771.912 226.841C772.045 226.902 772.162 226.939 772.239 226.961C772.392 227.005 772.538 227.031 772.641 227.048C772.857 227.083 773.114 227.109 773.374 227.132C773.903 227.178 774.639 227.224 775.51 227.279L775.76 223.286C774.865 223.23 774.189 223.188 773.722 223.147C773.484 223.126 773.346 223.11 773.278 223.099C773.241 223.093 773.272 223.096 773.341 223.115C773.375 223.125 773.457 223.15 773.562 223.198C773.642 223.234 773.881 223.347 774.12 223.586L771.292 226.414ZM713.262 261.896C712.885 256.366 715.184 247.721 723.777 240.41C732.371 233.099 747.422 227 772.706 227V223C746.818 223 730.729 229.245 721.185 237.364C711.641 245.483 708.807 255.354 709.271 262.168L713.262 261.896ZM713.267 299.905V262.032H709.267V299.905H713.267ZM521.057 301.905H711.267V297.905H521.057V301.905ZM503.623 312.238C504.522 309.092 509.235 301.905 521.057 301.905V297.905C507.294 297.905 501.122 306.429 499.777 311.139L503.623 312.238ZM503.7 329.363V311.688H499.7V329.363H503.7ZM293.816 331.363H501.7V327.363H293.816V331.363ZM268.043 356.295C268.043 346.2 272.332 340.069 277.603 336.389C282.978 332.636 289.495 331.363 293.816 331.363V327.363C288.88 327.363 281.509 328.783 275.313 333.109C269.011 337.509 264.043 344.844 264.043 356.295H268.043ZM268.043 1628.85C268.323 1416.76 268.66 1098.62 268.758 833.502C268.807 700.944 268.796 581.641 268.69 495.477C268.636 452.396 268.558 417.597 268.452 393.568C268.399 381.554 268.339 372.228 268.27 365.904C268.236 362.744 268.2 360.326 268.162 358.694C268.143 357.882 268.123 357.249 268.102 356.814C268.091 356.601 268.079 356.406 268.064 356.251C268.057 356.184 268.044 356.065 268.019 355.939C268.003 355.863 267.949 355.675 267.904 355.555C267.771 355.282 266.906 354.49 266.043 354.295V358.295C265.184 358.1 264.325 357.314 264.196 357.054C264.157 356.947 264.109 356.778 264.098 356.728C264.082 356.654 264.08 356.612 264.084 356.648C264.089 356.699 264.097 356.812 264.106 357.009C264.125 357.392 264.144 357.983 264.163 358.788C264.201 360.393 264.237 362.791 264.271 365.947C264.339 372.258 264.399 381.573 264.452 393.585C264.558 417.608 264.636 452.402 264.69 495.482C264.796 581.643 264.807 700.943 264.758 833.5C264.66 1098.61 264.323 1416.75 264.043 1628.84L268.043 1628.85ZM293.816 1658.83C282.767 1658.83 276.313 1653.89 272.589 1647.79C268.786 1641.56 267.774 1634 268.04 1628.95L264.045 1628.74C263.75 1634.35 264.842 1642.78 269.175 1649.88C273.587 1657.1 281.3 1662.83 293.816 1662.83V1658.83ZM752.503 1658.83C676.195 1658.97 561.692 1659.14 466.182 1659.18C418.427 1659.21 375.421 1659.2 344.313 1659.15C328.758 1659.12 316.18 1659.08 307.472 1659.03C303.116 1659 299.734 1658.97 297.431 1658.94C296.279 1658.92 295.406 1658.91 294.821 1658.89C294.526 1658.88 294.321 1658.87 294.196 1658.86C294.129 1658.86 294.114 1658.85 294.129 1658.86C294.131 1658.86 294.186 1658.86 294.265 1658.88C294.308 1658.89 294.428 1658.92 294.5 1658.95C294.628 1659 295.006 1659.22 295.231 1659.41L292.402 1662.24C292.63 1662.44 293.012 1662.66 293.147 1662.71C293.227 1662.74 293.357 1662.78 293.412 1662.79C293.514 1662.81 293.602 1662.82 293.647 1662.83C293.746 1662.84 293.852 1662.85 293.943 1662.85C294.133 1662.87 294.389 1662.88 294.695 1662.89C295.315 1662.91 296.214 1662.92 297.373 1662.94C299.693 1662.97 303.089 1663 307.447 1663.03C316.165 1663.08 328.75 1663.12 344.306 1663.15C375.419 1663.2 418.428 1663.21 466.184 1663.18C561.697 1663.14 676.202 1662.97 752.51 1662.83L752.503 1658.83ZM327.799 1574.98V379.86H323.799V1574.98H327.799ZM1217.09 1572.98H325.799V1576.98H1217.09V1572.98ZM1215.09 379.86V1574.98H1219.09V379.86H1215.09ZM1043.71 381.86H1217.09V377.86H1043.71V381.86ZM1045.71 394.167V379.86H1041.71V394.167H1045.71ZM1027.72 416.367C1034.39 416.367 1038.8 412.39 1041.52 407.813C1044.21 403.276 1045.41 397.912 1045.7 394.334L1041.72 394.001C1041.46 397.156 1040.38 401.892 1038.08 405.771C1035.8 409.61 1032.5 412.367 1027.72 412.367V416.367ZM521.899 416.367H1027.72V412.367H521.899V416.367ZM499.7 393.326C499.7 402.053 503.376 407.822 508.063 411.392C512.66 414.893 518.128 416.211 521.816 416.365L521.982 412.368C518.937 412.242 514.306 411.119 510.486 408.21C506.757 405.369 503.7 400.758 503.7 393.326H499.7ZM499.7 379.86V393.326H503.7V379.86H499.7ZM325.799 381.86H501.7V377.86H325.799V381.86Z" fill="black"/>
<rect x="1436" y="378" width="776" height="343" fill="white" stroke="black" stroke-width="4"/>
<line x1="1999" y1="720" x2="1999" y2="380" stroke="black" stroke-width="4" stroke-dasharray="4 4"/>
<path fill-rule="evenodd" clip-rule="evenodd" d="M1504.87 414.479H1540.61C1541.05 416.855 1543.16 422.389 1548.07 425.506C1553.13 431.31 1554.29 441.923 1548.07 449.634C1548.07 449.674 1547.88 449.815 1547.57 450.052C1545.9 451.315 1540.61 455.309 1540.61 461.242C1540.61 461.375 1516.8 461.298 1504.88 461.242V461.242C1492.97 461.298 1469.15 461.375 1469.15 461.242C1469.15 455.309 1463.86 451.315 1462.19 450.052C1461.87 449.815 1461.69 449.674 1461.69 449.634C1455.47 441.923 1456.63 431.31 1461.69 425.506C1466.59 422.389 1468.71 416.856 1469.15 414.479H1504.87V414.479Z" fill="white"/>
<path d="M1540.61 414.479L1542.57 414.113L1542.27 412.479H1540.61V414.479ZM1504.87 414.479V412.479H1502.87V414.479H1504.87ZM1548.07 425.506L1549.58 424.192L1549.39 423.973L1549.14 423.818L1548.07 425.506ZM1548.07 449.634L1546.51 448.379L1546.07 448.928V449.634H1548.07ZM1547.57 450.052L1546.36 448.456L1546.36 448.456L1547.57 450.052ZM1504.88 461.242L1504.89 459.242L1502.88 459.233V461.242H1504.88ZM1504.88 461.242L1504.89 463.242L1506.88 463.233V461.242H1504.88ZM1462.19 450.052L1463.39 448.456L1463.39 448.456L1462.19 450.052ZM1461.69 449.634H1463.69V448.928L1463.24 448.379L1461.69 449.634ZM1461.69 425.506L1460.61 423.818L1460.37 423.974L1460.18 424.192L1461.69 425.506ZM1469.15 414.479V412.479H1467.49L1467.18 414.113L1469.15 414.479ZM1504.87 414.479V416.479H1506.87V414.479H1504.87ZM1540.61 412.479H1504.87V416.479H1540.61V412.479ZM1549.14 423.818C1544.86 421.099 1542.96 416.161 1542.57 414.113L1538.64 414.844C1539.15 417.55 1541.46 423.679 1547 427.194L1549.14 423.818ZM1549.63 450.89C1556.49 442.385 1555.24 430.69 1549.58 424.192L1546.56 426.82C1551.02 431.931 1552.09 441.461 1546.51 448.379L1549.63 450.89ZM1548.77 451.648C1548.92 451.539 1549.08 451.419 1549.2 451.321C1549.25 451.276 1549.35 451.194 1549.45 451.095C1549.5 451.05 1549.6 450.949 1549.69 450.809C1549.73 450.757 1550.07 450.307 1550.07 449.634H1546.07C1546.07 449.259 1546.18 448.975 1546.24 448.831C1546.31 448.676 1546.38 448.562 1546.43 448.499C1546.52 448.375 1546.6 448.293 1546.62 448.27C1546.67 448.216 1546.71 448.192 1546.68 448.217C1546.63 448.258 1546.53 448.327 1546.36 448.456L1548.77 451.648ZM1542.61 461.242C1542.61 458.893 1543.65 456.843 1545.02 455.152C1546.38 453.46 1547.95 452.271 1548.77 451.648L1546.36 448.456C1545.52 449.096 1543.6 450.536 1541.9 452.64C1540.21 454.745 1538.61 457.658 1538.61 461.242H1542.61ZM1504.87 463.242C1510.83 463.27 1519.77 463.303 1527.21 463.313C1530.93 463.318 1534.29 463.317 1536.71 463.306C1537.92 463.301 1538.91 463.293 1539.59 463.282C1539.93 463.277 1540.21 463.271 1540.41 463.263C1540.51 463.26 1540.61 463.255 1540.7 463.247C1540.74 463.244 1540.83 463.237 1540.93 463.22C1540.96 463.214 1541.1 463.19 1541.26 463.133C1541.33 463.109 1541.54 463.036 1541.76 462.877C1541.92 462.768 1542.61 462.246 1542.61 461.242H1538.61C1538.61 460.24 1539.3 459.719 1539.45 459.61C1539.68 459.453 1539.88 459.381 1539.94 459.358C1540.1 459.302 1540.23 459.281 1540.25 459.277C1540.3 459.269 1540.33 459.265 1540.35 459.264C1540.36 459.262 1540.37 459.261 1540.38 459.261C1540.38 459.261 1540.34 459.263 1540.26 459.266C1540.11 459.272 1539.86 459.278 1539.53 459.283C1538.87 459.293 1537.9 459.301 1536.69 459.306C1534.28 459.317 1530.94 459.318 1527.22 459.313C1519.78 459.303 1510.85 459.27 1504.89 459.242L1504.87 463.242ZM1502.88 461.242V461.242H1506.88V461.242H1502.88ZM1504.87 459.243C1498.92 459.27 1489.99 459.303 1482.55 459.313C1478.82 459.318 1475.48 459.317 1473.06 459.306C1471.86 459.301 1470.89 459.293 1470.23 459.283C1469.89 459.278 1469.65 459.272 1469.49 459.266C1469.41 459.263 1469.38 459.261 1469.38 459.261C1469.38 459.261 1469.39 459.262 1469.41 459.264C1469.42 459.265 1469.46 459.269 1469.5 459.277C1469.53 459.281 1469.65 459.302 1469.81 459.358C1469.88 459.381 1470.08 459.453 1470.3 459.61C1470.46 459.719 1471.15 460.24 1471.15 461.242H1467.15C1467.15 462.246 1467.84 462.768 1467.99 462.878C1468.22 463.036 1468.42 463.109 1468.49 463.133C1468.66 463.191 1468.79 463.214 1468.83 463.22C1468.93 463.237 1469.02 463.245 1469.05 463.248C1469.14 463.255 1469.25 463.26 1469.34 463.264C1469.54 463.271 1469.82 463.277 1470.16 463.283C1470.85 463.293 1471.84 463.301 1473.05 463.306C1475.47 463.317 1478.83 463.318 1482.55 463.313C1490 463.303 1498.94 463.27 1504.89 463.242L1504.87 459.243ZM1471.15 461.242C1471.15 457.658 1469.55 454.745 1467.85 452.64C1466.15 450.536 1464.24 449.097 1463.39 448.456L1460.98 451.648C1461.81 452.271 1463.37 453.46 1464.74 455.152C1466.1 456.844 1467.15 458.893 1467.15 461.242H1471.15ZM1463.39 448.456C1463.22 448.327 1463.13 448.259 1463.08 448.217C1463.05 448.192 1463.08 448.216 1463.13 448.27C1463.16 448.294 1463.24 448.375 1463.33 448.499C1463.37 448.562 1463.45 448.676 1463.52 448.831C1463.58 448.975 1463.69 449.259 1463.69 449.634H1459.69C1459.69 450.307 1460.02 450.758 1460.06 450.809C1460.16 450.949 1460.26 451.05 1460.3 451.096C1460.4 451.195 1460.5 451.277 1460.56 451.321C1460.68 451.419 1460.84 451.539 1460.98 451.648L1463.39 448.456ZM1463.24 448.379C1457.66 441.461 1458.74 431.931 1463.19 426.82L1460.18 424.192C1454.52 430.69 1453.27 442.385 1460.13 450.89L1463.24 448.379ZM1462.76 427.195C1468.29 423.679 1470.61 417.55 1471.11 414.845L1467.18 414.113C1466.8 416.161 1464.89 421.099 1460.61 423.818L1462.76 427.195ZM1469.15 416.479H1504.87V412.479H1469.15V416.479ZM1502.87 414.479V414.479H1506.87V414.479H1502.87Z" fill="black"/>
<rect x="1435" y="803" width="776" height="343" fill="white" stroke="black" stroke-width="4"/>
<line x1="1998" y1="1145" x2="1998" y2="805" stroke="black" stroke-width="4" stroke-dasharray="4 4"/>
<path fill-rule="evenodd" clip-rule="evenodd" d="M1503.87 839.479L1539.61 839.479C1540.05 841.855 1542.16 847.389 1547.07 850.506C1552.13 856.31 1553.29 866.923 1547.07 874.634C1547.07 874.674 1546.88 874.815 1546.57 875.052C1544.9 876.315 1539.61 880.309 1539.61 886.242C1539.61 886.375 1515.8 886.298 1503.88 886.242V886.242C1491.97 886.298 1468.15 886.375 1468.15 886.242C1468.15 880.309 1462.86 876.315 1461.19 875.052C1460.87 874.815 1460.69 874.674 1460.69 874.634C1454.47 866.923 1455.63 856.31 1460.69 850.506C1465.59 847.389 1467.71 841.856 1468.15 839.479H1503.87V839.479Z" fill="white"/>
<path d="M1539.61 839.479L1541.57 839.113L1541.27 837.479H1539.61V839.479ZM1503.87 839.479V837.479H1501.87V839.479L1503.87 839.479ZM1547.07 850.506L1548.58 849.192L1548.39 848.973L1548.14 848.818L1547.07 850.506ZM1547.07 874.634L1545.51 873.379L1545.07 873.928V874.634H1547.07ZM1546.57 875.052L1545.36 873.456L1545.36 873.456L1546.57 875.052ZM1503.88 886.242L1503.89 884.242L1501.88 884.233V886.242H1503.88ZM1503.88 886.242L1503.89 888.242L1505.88 888.233V886.242H1503.88ZM1461.19 875.052L1462.39 873.456L1462.39 873.456L1461.19 875.052ZM1460.69 874.634H1462.69V873.928L1462.24 873.379L1460.69 874.634ZM1460.69 850.506L1459.61 848.818L1459.37 848.974L1459.18 849.192L1460.69 850.506ZM1468.15 839.479V837.479H1466.49L1466.18 839.113L1468.15 839.479ZM1503.87 839.479V841.479H1505.87V839.479L1503.87 839.479ZM1539.61 837.479H1503.87V841.479H1539.61V837.479ZM1548.14 848.818C1543.86 846.099 1541.96 841.161 1541.57 839.113L1537.64 839.844C1538.15 842.55 1540.46 848.679 1546 852.194L1548.14 848.818ZM1548.63 875.89C1555.49 867.385 1554.24 855.69 1548.58 849.192L1545.56 851.82C1550.02 856.931 1551.09 866.461 1545.51 873.379L1548.63 875.89ZM1547.77 876.648C1547.92 876.539 1548.08 876.419 1548.2 876.321C1548.25 876.276 1548.35 876.194 1548.45 876.095C1548.5 876.05 1548.6 875.949 1548.69 875.809C1548.73 875.757 1549.07 875.307 1549.07 874.634H1545.07C1545.07 874.259 1545.18 873.975 1545.24 873.831C1545.31 873.676 1545.38 873.562 1545.43 873.499C1545.52 873.375 1545.6 873.293 1545.62 873.27C1545.67 873.216 1545.71 873.192 1545.68 873.217C1545.63 873.258 1545.53 873.327 1545.36 873.456L1547.77 876.648ZM1541.61 886.242C1541.61 883.893 1542.65 881.843 1544.02 880.152C1545.38 878.46 1546.95 877.271 1547.77 876.648L1545.36 873.456C1544.52 874.096 1542.6 875.536 1540.9 877.64C1539.21 879.745 1537.61 882.658 1537.61 886.242H1541.61ZM1503.87 888.242C1509.83 888.27 1518.77 888.303 1526.21 888.313C1529.93 888.318 1533.29 888.317 1535.71 888.306C1536.92 888.301 1537.91 888.293 1538.59 888.282C1538.93 888.277 1539.21 888.271 1539.41 888.263C1539.51 888.26 1539.61 888.255 1539.7 888.247C1539.74 888.244 1539.83 888.237 1539.93 888.22C1539.96 888.214 1540.1 888.19 1540.26 888.133C1540.33 888.109 1540.54 888.036 1540.76 887.877C1540.92 887.768 1541.61 887.246 1541.61 886.242H1537.61C1537.61 885.24 1538.3 884.719 1538.45 884.61C1538.68 884.453 1538.88 884.381 1538.94 884.358C1539.1 884.302 1539.23 884.281 1539.25 884.277C1539.3 884.269 1539.33 884.265 1539.35 884.264C1539.36 884.262 1539.37 884.261 1539.38 884.261C1539.38 884.261 1539.34 884.263 1539.26 884.266C1539.11 884.272 1538.86 884.278 1538.53 884.283C1537.87 884.293 1536.9 884.301 1535.69 884.306C1533.28 884.317 1529.94 884.318 1526.22 884.313C1518.78 884.303 1509.85 884.27 1503.89 884.242L1503.87 888.242ZM1501.88 886.242V886.242H1505.88V886.242H1501.88ZM1503.87 884.243C1497.92 884.27 1488.99 884.303 1481.55 884.313C1477.82 884.318 1474.48 884.317 1472.06 884.306C1470.86 884.301 1469.89 884.293 1469.23 884.283C1468.89 884.278 1468.65 884.272 1468.49 884.266C1468.41 884.263 1468.38 884.261 1468.38 884.261C1468.38 884.261 1468.39 884.262 1468.41 884.264C1468.42 884.265 1468.46 884.269 1468.5 884.277C1468.53 884.281 1468.65 884.302 1468.81 884.358C1468.88 884.381 1469.08 884.453 1469.3 884.61C1469.46 884.719 1470.15 885.24 1470.15 886.242H1466.15C1466.15 887.246 1466.84 887.768 1466.99 887.878C1467.22 888.036 1467.42 888.109 1467.49 888.133C1467.66 888.191 1467.79 888.214 1467.83 888.22C1467.93 888.237 1468.02 888.245 1468.05 888.248C1468.14 888.255 1468.25 888.26 1468.34 888.264C1468.54 888.271 1468.82 888.277 1469.16 888.283C1469.85 888.293 1470.84 888.301 1472.05 888.306C1474.47 888.317 1477.83 888.318 1481.55 888.313C1489 888.303 1497.94 888.27 1503.89 888.242L1503.87 884.243ZM1470.15 886.242C1470.15 882.658 1468.55 879.745 1466.85 877.64C1465.15 875.536 1463.24 874.097 1462.39 873.456L1459.98 876.648C1460.81 877.271 1462.37 878.46 1463.74 880.152C1465.1 881.844 1466.15 883.893 1466.15 886.242H1470.15ZM1462.39 873.456C1462.22 873.327 1462.13 873.259 1462.08 873.217C1462.05 873.192 1462.08 873.216 1462.13 873.27C1462.16 873.294 1462.24 873.375 1462.33 873.499C1462.37 873.562 1462.45 873.676 1462.52 873.831C1462.58 873.975 1462.69 874.259 1462.69 874.634H1458.69C1458.69 875.307 1459.02 875.758 1459.06 875.809C1459.16 875.949 1459.26 876.05 1459.3 876.096C1459.4 876.195 1459.5 876.277 1459.56 876.321C1459.68 876.419 1459.84 876.539 1459.98 876.648L1462.39 873.456ZM1462.24 873.379C1456.66 866.461 1457.74 856.931 1462.19 851.82L1459.18 849.192C1453.52 855.69 1452.27 867.385 1459.13 875.89L1462.24 873.379ZM1461.76 852.195C1467.29 848.679 1469.61 842.55 1470.11 839.845L1466.18 839.113C1465.8 841.161 1463.89 846.099 1459.61 848.818L1461.76 852.195ZM1468.15 841.479H1503.87V837.479H1468.15V841.479ZM1501.87 839.479V839.479L1505.87 839.479V839.479L1501.87 839.479Z" fill="black"/>
<rect x="1435" y="1228" width="776" height="343" fill="white" stroke="black" stroke-width="4"/>
<line x1="1998" y1="1570" x2="1998" y2="1230" stroke="black" stroke-width="4" stroke-dasharray="4 4"/>
<path fill-rule="evenodd" clip-rule="evenodd" d="M1503.87 1264.48H1539.61C1540.05 1266.86 1542.16 1272.39 1547.07 1275.51C1552.13 1281.31 1553.29 1291.92 1547.07 1299.63C1547.07 1299.67 1546.88 1299.81 1546.57 1300.05C1544.9 1301.32 1539.61 1305.31 1539.61 1311.24C1539.61 1311.37 1515.8 1311.3 1503.88 1311.24V1311.24C1491.97 1311.3 1468.15 1311.38 1468.15 1311.24C1468.15 1305.31 1462.86 1301.32 1461.19 1300.05C1460.87 1299.81 1460.69 1299.67 1460.69 1299.63C1454.47 1291.92 1455.63 1281.31 1460.69 1275.51C1465.59 1272.39 1467.71 1266.86 1468.15 1264.48H1503.87V1264.48Z" fill="white"/>
<path d="M1539.61 1264.48L1541.57 1264.11L1541.27 1262.48H1539.61V1264.48ZM1503.87 1264.48V1262.48H1501.87V1264.48H1503.87ZM1547.07 1275.51L1548.58 1274.19L1548.39 1273.97L1548.14 1273.82L1547.07 1275.51ZM1547.07 1299.63L1545.51 1298.38L1545.07 1298.93V1299.63H1547.07ZM1546.57 1300.05L1545.36 1298.46L1545.36 1298.46L1546.57 1300.05ZM1503.88 1311.24L1503.89 1309.24L1501.88 1309.23V1311.24H1503.88ZM1503.88 1311.24L1503.89 1313.24L1505.88 1313.23V1311.24H1503.88ZM1461.19 1300.05L1462.39 1298.46L1462.39 1298.46L1461.19 1300.05ZM1460.69 1299.63H1462.69V1298.93L1462.24 1298.38L1460.69 1299.63ZM1460.69 1275.51L1459.61 1273.82L1459.37 1273.97L1459.18 1274.19L1460.69 1275.51ZM1468.15 1264.48V1262.48H1466.49L1466.18 1264.11L1468.15 1264.48ZM1503.87 1264.48V1266.48H1505.87V1264.48H1503.87ZM1539.61 1262.48H1503.87V1266.48H1539.61V1262.48ZM1548.14 1273.82C1543.86 1271.1 1541.96 1266.16 1541.57 1264.11L1537.64 1264.84C1538.15 1267.55 1540.46 1273.68 1546 1277.19L1548.14 1273.82ZM1548.63 1300.89C1555.49 1292.39 1554.24 1280.69 1548.58 1274.19L1545.56 1276.82C1550.02 1281.93 1551.09 1291.46 1545.51 1298.38L1548.63 1300.89ZM1547.77 1301.65C1547.92 1301.54 1548.08 1301.42 1548.2 1301.32C1548.25 1301.28 1548.35 1301.19 1548.45 1301.1C1548.5 1301.05 1548.6 1300.95 1548.69 1300.81C1548.73 1300.76 1549.07 1300.31 1549.07 1299.63H1545.07C1545.07 1299.26 1545.18 1298.97 1545.24 1298.83C1545.31 1298.68 1545.38 1298.56 1545.43 1298.5C1545.52 1298.37 1545.6 1298.29 1545.62 1298.27C1545.67 1298.22 1545.71 1298.19 1545.68 1298.22C1545.63 1298.26 1545.53 1298.33 1545.36 1298.46L1547.77 1301.65ZM1541.61 1311.24C1541.61 1308.89 1542.65 1306.84 1544.02 1305.15C1545.38 1303.46 1546.95 1302.27 1547.77 1301.65L1545.36 1298.46C1544.52 1299.1 1542.6 1300.54 1540.9 1302.64C1539.21 1304.74 1537.61 1307.66 1537.61 1311.24H1541.61ZM1503.87 1313.24C1509.83 1313.27 1518.77 1313.3 1526.21 1313.31C1529.93 1313.32 1533.29 1313.32 1535.71 1313.31C1536.92 1313.3 1537.91 1313.29 1538.59 1313.28C1538.93 1313.28 1539.21 1313.27 1539.41 1313.26C1539.51 1313.26 1539.61 1313.25 1539.7 1313.25C1539.74 1313.24 1539.83 1313.24 1539.93 1313.22C1539.96 1313.21 1540.1 1313.19 1540.26 1313.13C1540.33 1313.11 1540.54 1313.04 1540.76 1312.88C1540.92 1312.77 1541.61 1312.25 1541.61 1311.24H1537.61C1537.61 1310.24 1538.3 1309.72 1538.45 1309.61C1538.68 1309.45 1538.88 1309.38 1538.94 1309.36C1539.1 1309.3 1539.23 1309.28 1539.25 1309.28C1539.3 1309.27 1539.33 1309.27 1539.35 1309.26C1539.36 1309.26 1539.37 1309.26 1539.38 1309.26C1539.38 1309.26 1539.34 1309.26 1539.26 1309.27C1539.11 1309.27 1538.86 1309.28 1538.53 1309.28C1537.87 1309.29 1536.9 1309.3 1535.69 1309.31C1533.28 1309.32 1529.94 1309.32 1526.22 1309.31C1518.78 1309.3 1509.85 1309.27 1503.89 1309.24L1503.87 1313.24ZM1501.88 1311.24V1311.24H1505.88V1311.24H1501.88ZM1503.87 1309.24C1497.92 1309.27 1488.99 1309.3 1481.55 1309.31C1477.82 1309.32 1474.48 1309.32 1472.06 1309.31C1470.86 1309.3 1469.89 1309.29 1469.23 1309.28C1468.89 1309.28 1468.65 1309.27 1468.49 1309.27C1468.41 1309.26 1468.38 1309.26 1468.38 1309.26C1468.38 1309.26 1468.39 1309.26 1468.41 1309.26C1468.42 1309.27 1468.46 1309.27 1468.5 1309.28C1468.53 1309.28 1468.65 1309.3 1468.81 1309.36C1468.88 1309.38 1469.08 1309.45 1469.3 1309.61C1469.46 1309.72 1470.15 1310.24 1470.15 1311.24H1466.15C1466.15 1312.25 1466.84 1312.77 1466.99 1312.88C1467.22 1313.04 1467.42 1313.11 1467.49 1313.13C1467.66 1313.19 1467.79 1313.21 1467.83 1313.22C1467.93 1313.24 1468.02 1313.24 1468.05 1313.25C1468.14 1313.26 1468.25 1313.26 1468.34 1313.26C1468.54 1313.27 1468.82 1313.28 1469.16 1313.28C1469.85 1313.29 1470.84 1313.3 1472.05 1313.31C1474.47 1313.32 1477.83 1313.32 1481.55 1313.31C1489 1313.3 1497.94 1313.27 1503.89 1313.24L1503.87 1309.24ZM1470.15 1311.24C1470.15 1307.66 1468.55 1304.74 1466.85 1302.64C1465.15 1300.54 1463.24 1299.1 1462.39 1298.46L1459.98 1301.65C1460.81 1302.27 1462.37 1303.46 1463.74 1305.15C1465.1 1306.84 1466.15 1308.89 1466.15 1311.24H1470.15ZM1462.39 1298.46C1462.22 1298.33 1462.13 1298.26 1462.08 1298.22C1462.05 1298.19 1462.08 1298.22 1462.13 1298.27C1462.16 1298.29 1462.24 1298.37 1462.33 1298.5C1462.37 1298.56 1462.45 1298.68 1462.52 1298.83C1462.58 1298.98 1462.69 1299.26 1462.69 1299.63H1458.69C1458.69 1300.31 1459.02 1300.76 1459.06 1300.81C1459.16 1300.95 1459.26 1301.05 1459.3 1301.1C1459.4 1301.19 1459.5 1301.28 1459.56 1301.32C1459.68 1301.42 1459.84 1301.54 1459.98 1301.65L1462.39 1298.46ZM1462.24 1298.38C1456.66 1291.46 1457.74 1281.93 1462.19 1276.82L1459.18 1274.19C1453.52 1280.69 1452.27 1292.39 1459.13 1300.89L1462.24 1298.38ZM1461.76 1277.19C1467.29 1273.68 1469.61 1267.55 1470.11 1264.84L1466.18 1264.11C1465.8 1266.16 1463.89 1271.1 1459.61 1273.82L1461.76 1277.19ZM1468.15 1266.48H1503.87V1262.48H1468.15V1266.48ZM1501.87 1264.48V1264.48H1505.87V1264.48H1501.87Z" fill="black"/>
<line y1="2" x2="2480" y2="2" stroke="black" stroke-width="4" stroke-dasharray="8 8"/>
</svg>
