<svg width="2480" height="1750" viewBox="0 0 2480 1750" fill="none" xmlns="http://www.w3.org/2000/svg">
<mask id="mask0_188_66" style="mask-type:alpha" maskUnits="userSpaceOnUse" x="0" y="0" width="2480" height="1750">
<rect width="2480" height="1750" fill="#D9D9D9"/>
</mask>
<g mask="url(#mask0_188_66)">
<rect width="2480" height="1750" fill="#D9D9D9"/>
<rect x="405" y="294" width="1545" height="711" fill="white" stroke="black" stroke-width="4"/>
<g filter="url(#filter0_d_188_66)">
<path d="M489.5 477L405 292H1950.5L1870 477H489.5Z" fill="white"/>
<path d="M489.5 477L405 292H1950.5L1870 477H489.5Z" stroke="black" stroke-width="4"/>
</g>
<rect x="529" y="886" width="1545" height="711" fill="white" stroke="black" stroke-width="4"/>
<g filter="url(#filter1_d_188_66)">
<path d="M613.5 1069L529 884H2074.5L1994 1069H613.5Z" fill="white"/>
<path d="M613.5 1069L529 884H2074.5L1994 1069H613.5Z" stroke="black" stroke-width="4"/>
</g>
<rect x="-97" y="378" width="856" height="207" fill="white" stroke="black" stroke-width="4"/>
<line y1="2" x2="2480" y2="2" stroke="black" stroke-width="4" stroke-dasharray="8 8"/>
</g>
<defs>
<filter id="filter0_d_188_66" x="393.988" y="289.1" width="1567.46" height="204.8" filterUnits="userSpaceOnUse" color-interpolation-filters="sRGB">
<feFlood flood-opacity="0" result="BackgroundImageFix"/>
<feColorMatrix in="SourceAlpha" type="matrix" values="0 0 0 0 0 0 0 0 0 0 0 0 0 0 0 0 0 0 127 0" result="hardAlpha"/>
<feOffset dy="7"/>
<feGaussianBlur stdDeviation="3.95"/>
<feComposite in2="hardAlpha" operator="out"/>
<feColorMatrix type="matrix" values="0 0 0 0 0 0 0 0 0 0 0 0 0 0 0 0 0 0 0.25 0"/>
<feBlend mode="normal" in2="BackgroundImageFix" result="effect1_dropShadow_188_66"/>
<feBlend mode="normal" in="SourceGraphic" in2="effect1_dropShadow_188_66" result="shape"/>
</filter>
<filter id="filter1_d_188_66" x="517.988" y="881.1" width="1567.46" height="204.8" filterUnits="userSpaceOnUse" color-interpolation-filters="sRGB">
<feFlood flood-opacity="0" result="BackgroundImageFix"/>
<feColorMatrix in="SourceAlpha" type="matrix" values="0 0 0 0 0 0 0 0 0 0 0 0 0 0 0 0 0 0 127 0" result="hardAlpha"/>
<feOffset dy="7"/>
<feGaussianBlur stdDeviation="3.95"/>
<feComposite in2="hardAlpha" operator="out"/>
<feColorMatrix type="matrix" values="0 0 0 0 0 0 0 0 0 0 0 0 0 0 0 0 0 0 0.25 0"/>
<feBlend mode="normal" in2="BackgroundImageFix" result="effect1_dropShadow_188_66"/>
<feBlend mode="normal" in="SourceGraphic" in2="effect1_dropShadow_188_66" result="shape"/>
</filter>
</defs>
</svg>
